<svg width="24" height="24" viewBox="0 0 24 24" fill="none" xmlns="http://www.w3.org/2000/svg">
<g clip-path="url(#clip0_2078_69980)">
<path d="M9 11.25C13.1421 11.25 16.5 9.73896 16.5 7.875C16.5 6.01104 13.1421 4.5 9 4.5C4.85786 4.5 1.5 6.01104 1.5 7.875C1.5 9.73896 4.85786 11.25 9 11.25Z" stroke="#FFD363" stroke-width="2" stroke-linecap="round" stroke-linejoin="round"/>
<path d="M1.5 7.875V11.625C1.5 13.4887 4.85812 15 9 15C13.1419 15 16.5 13.4887 16.5 11.625V7.875" stroke="#FFD363" stroke-width="2" stroke-linecap="round" stroke-linejoin="round"/>
<path d="M6 10.9688V14.7188" stroke="#FFD363" stroke-width="2" stroke-linecap="round" stroke-linejoin="round"/>
<path d="M16.5001 9.06738C19.9239 9.38051 22.5001 10.7418 22.5001 12.3749C22.5001 14.2386 19.142 15.7499 15.0001 15.7499C13.1626 15.7499 11.4789 15.4527 10.1748 14.9586" stroke="#FFD363" stroke-width="2" stroke-linecap="round" stroke-linejoin="round"/>
<path d="M7.5 14.9325V16.125C7.5 17.9887 10.8581 19.5 15 19.5C19.1419 19.5 22.5 17.9887 22.5 16.125V12.375" stroke="#FFD363" stroke-width="2" stroke-linecap="round" stroke-linejoin="round"/>
<path d="M18 15.4688V19.2188" stroke="#FFD363" stroke-width="2" stroke-linecap="round" stroke-linejoin="round"/>
<path d="M12 10.9688V19.2188" stroke="#FFD363" stroke-width="2" stroke-linecap="round" stroke-linejoin="round"/>
</g>
<defs>
<clipPath id="clip0_2078_69980">
<rect width="24" height="24" fill="white"/>
</clipPath>
</defs>
</svg>
