<svg width="118" height="104" viewBox="0 0 118 104" fill="none" xmlns="http://www.w3.org/2000/svg">
<path d="M36.0091 64.9391C53.6765 64.9391 67.9987 58.4941 67.9987 50.5437C67.9987 42.5934 53.6765 36.1484 36.0091 36.1484C18.3417 36.1484 4.01953 42.5934 4.01953 50.5437C4.01953 58.4941 18.3417 64.9391 36.0091 64.9391Z" stroke="#E8C776" stroke-width="6.39791" stroke-linecap="round" stroke-linejoin="round"/>
<path d="M4.01953 50.5439V66.5387C4.01953 74.4881 18.3429 80.934 36.0091 80.934C53.6753 80.934 67.9987 74.4881 67.9987 66.5387V50.5439" stroke="#E8C776" stroke-width="6.39791" stroke-linecap="round" stroke-linejoin="round"/>
<path d="M23.2129 63.7402V79.735" stroke="#E8C776" stroke-width="6.39791" stroke-linecap="round" stroke-linejoin="round"/>
<path d="M67.9987 55.6309C82.602 56.9664 93.5904 62.7725 93.5904 69.7383C93.5904 77.6877 79.2671 84.1336 61.6008 84.1336C53.7634 84.1336 46.5817 82.866 41.0195 80.7587" stroke="#E8C776" stroke-width="6.39791" stroke-linecap="round" stroke-linejoin="round"/>
<path d="M29.6113 80.6467V85.7331C29.6113 93.6825 43.9347 100.128 61.6009 100.128C79.2671 100.128 93.5905 93.6825 93.5905 85.7331V69.7383" stroke="#E8C776" stroke-width="6.39791" stroke-linecap="round" stroke-linejoin="round"/>
<path d="M74.3965 82.9336V98.9284" stroke="#E8C776" stroke-width="6.39791" stroke-linecap="round" stroke-linejoin="round"/>
<path d="M48.8047 63.7402V98.9288" stroke="#E8C776" stroke-width="6.39791" stroke-linecap="round" stroke-linejoin="round"/>
<path d="M87.1934 24.9526L91.9918 29.751L103.188 18.5547" stroke="#E8C776" stroke-width="6.39791" stroke-linecap="round" stroke-linejoin="round"/>
<path d="M95.1898 42.5467C105.79 42.5467 114.384 33.9533 114.384 23.3529C114.384 12.7525 105.79 4.15918 95.1898 4.15918C84.5894 4.15918 75.9961 12.7525 75.9961 23.3529C75.9961 33.9533 84.5894 42.5467 95.1898 42.5467Z" stroke="#E8C776" stroke-width="6.39791" stroke-linecap="round" stroke-linejoin="round"/>
</svg>
