<svg width="25" height="17" viewBox="0 0 25 17" fill="none" xmlns="http://www.w3.org/2000/svg">
<path d="M24.3733 5.91922C25.2089 9.30826 25.2089 12.7437 24.3733 16.2256H14.6936C14.4615 15.2043 14.299 14.2526 14.2061 13.3705C14.1133 12.4884 14.0669 11.6527 14.0669 10.8635C14.0669 8.77437 14.3686 6.89415 14.9721 5.22284C15.5757 3.50511 16.4113 1.76416 17.4791 0H20.1253C19.7539 0.835655 19.4522 1.8338 19.2201 2.99443C18.9879 4.10864 18.8951 5.08357 18.9415 5.91922H24.3733ZM10.3064 5.91922C11.1421 9.30826 11.1421 12.7437 10.3064 16.2256H0.626741C0.394615 15.2043 0.232126 14.2526 0.139276 13.3705C0.0464253 12.4884 0 11.6527 0 10.8635C0 8.77437 0.301764 6.89415 0.905292 5.22284C1.50882 3.50511 2.34448 1.76416 3.41226 0H6.0585C5.68709 0.835655 5.38533 1.8338 5.1532 2.99443C4.92108 4.10864 4.82823 5.08357 4.87465 5.91922H10.3064Z" fill="#FEEA9A" fill-opacity="0.24"/>
</svg>
