<svg width="95" height="40" viewBox="0 0 95 40" fill="none" xmlns="http://www.w3.org/2000/svg">
<path d="M34.0934 33.5238L18.0934 17.5239L11.6173 24.762L27.2363 40L28.3792 34.2857L34.0934 33.5238Z" fill="url(#paint0_linear_2133_10600)"/>
<path d="M0.951355 33.5238L16.9514 17.5239L23.4275 24.762L7.8085 40L6.66564 34.2857L0.951355 33.5238Z" fill="url(#paint1_linear_2133_10600)"/>
<rect x="3.22479" y="0.75" width="28.9762" height="28.976" rx="14.488" fill="url(#paint2_linear_2133_10600)"/>
<rect x="3.22479" y="0.75" width="28.9762" height="28.976" rx="14.488" stroke="url(#paint3_linear_2133_10600)" stroke-width="1.5"/>
<path d="M17.9514 3L20.4193 6.59484L24.439 4.90496L24.5717 9.26342L28.8669 10.015L26.6222 13.7533L29.8292 16.7078L25.9197 18.639L27.0203 22.8583L22.6874 22.3694L21.3321 26.5139L17.9514 23.76L14.5706 26.5139L13.2153 22.3694L8.88236 22.8583L9.98298 18.639L6.0735 16.7078L9.28052 13.7533L7.03577 10.015L11.331 9.26342L11.4637 4.90496L15.4834 6.59484L17.9514 3Z" fill="url(#paint4_linear_2133_10600)" fill-opacity="0.54"/>
<path d="M17.7129 9.23779L20.1357 11.903L23.4192 13.3837L21.6331 16.5116L21.2396 20.0919L17.7129 19.3598L14.1862 20.0919L13.7926 16.5116L12.0066 13.3837L15.29 11.903L17.7129 9.23779Z" fill="black" fill-opacity="0.63"/>
<path d="M87.7533 29.8821V21.2437H90.9928C91.6564 21.2437 92.2132 21.3589 92.6632 21.5895C93.1159 21.8201 93.4576 22.1435 93.6882 22.5597C93.9216 22.973 94.0383 23.4553 94.0383 24.0064C94.0383 24.5604 93.9202 25.0413 93.684 25.449C93.4505 25.8539 93.1061 26.1675 92.6505 26.3896C92.195 26.6089 91.6354 26.7186 90.9717 26.7186H88.6644V25.4195H90.7608C91.1489 25.4195 91.4666 25.366 91.7141 25.2592C91.9616 25.1495 92.1443 24.9906 92.2624 24.7826C92.3834 24.5717 92.4438 24.3129 92.4438 24.0064C92.4438 23.6999 92.3834 23.4384 92.2624 23.2219C92.1415 23.0026 91.9573 22.8366 91.7099 22.7242C91.4624 22.6089 91.1432 22.5512 90.7524 22.5512H89.3182V29.8821H87.7533ZM92.216 25.9678L94.3546 29.8821H92.6083L90.5077 25.9678H92.216Z" fill="#FFE395"/>
<path d="M80.5397 29.8821V21.2437H86.1582V22.5555H82.1047V24.9007H85.8672V26.2125H82.1047V28.5703H86.192V29.8821H80.5397Z" fill="#FFE395"/>
<path d="M72.3187 22.5555V21.2437H79.2111V22.5555H76.5411V29.8821H74.9888V22.5555H72.3187Z" fill="#FFE395"/>
<path d="M65.0547 29.8821V21.2437H68.2942C68.9578 21.2437 69.5146 21.3674 69.9646 21.6148C70.4173 21.8623 70.759 22.2025 70.9896 22.6356C71.223 23.0658 71.3397 23.5551 71.3397 24.1035C71.3397 24.6574 71.223 25.1495 70.9896 25.5798C70.7562 26.01 70.4117 26.3488 69.9561 26.5963C69.5006 26.8409 68.9396 26.9633 68.2731 26.9633H66.1261V25.6768H68.0622C68.4503 25.6768 68.768 25.6093 69.0155 25.4743C69.2629 25.3393 69.4457 25.1537 69.5638 24.9175C69.6848 24.6813 69.7452 24.41 69.7452 24.1035C69.7452 23.7969 69.6848 23.527 69.5638 23.2936C69.4457 23.0602 69.2615 22.8788 69.0113 22.7495C68.7638 22.6173 68.4446 22.5512 68.0538 22.5512H66.6196V29.8821H65.0547Z" fill="#FFE395"/>
<path d="M63.5775 25.5628C63.5775 26.4936 63.4032 27.2908 63.0545 27.9544C62.7086 28.6152 62.2362 29.1214 61.6372 29.4729C61.041 29.8244 60.3647 30.0002 59.6083 30.0002C58.8518 30.0002 58.1741 29.8244 57.5751 29.4729C56.979 29.1186 56.5066 28.611 56.1579 27.9502C55.812 27.2866 55.639 26.4908 55.639 25.5628C55.639 24.6321 55.812 23.8363 56.1579 23.1754C56.5066 22.5118 56.979 22.0042 57.5751 21.6527C58.1741 21.3012 58.8518 21.1255 59.6083 21.1255C60.3647 21.1255 61.041 21.3012 61.6372 21.6527C62.2362 22.0042 62.7086 22.5118 63.0545 23.1754C63.4032 23.8363 63.5775 24.6321 63.5775 25.5628ZM62.0042 25.5628C62.0042 24.9076 61.9015 24.3551 61.6962 23.9051C61.4938 23.4524 61.2126 23.1108 60.8526 22.8802C60.4927 22.6468 60.0779 22.5301 59.6083 22.5301C59.1387 22.5301 58.7239 22.6468 58.3639 22.8802C58.004 23.1108 57.7214 23.4524 57.5161 23.9051C57.3136 24.3551 57.2124 24.9076 57.2124 25.5628C57.2124 26.218 57.3136 26.772 57.5161 27.2247C57.7214 27.6746 58.004 28.0163 58.3639 28.2497C58.7239 28.4803 59.1387 28.5956 59.6083 28.5956C60.0779 28.5956 60.4927 28.4803 60.8526 28.2497C61.2126 28.0163 61.4938 27.6746 61.6962 27.2247C61.9015 26.772 62.0042 26.218 62.0042 25.5628Z" fill="#FFE395"/>
<path d="M50.1744 29.8821H47.2471V21.2437H50.2335C51.0912 21.2437 51.8279 21.4166 52.4438 21.7625C53.0624 22.1055 53.5377 22.599 53.8695 23.243C54.2013 23.8869 54.3672 24.6574 54.3672 25.5544C54.3672 26.4543 54.1999 27.2276 53.8653 27.8743C53.5334 28.5211 53.054 29.0174 52.4269 29.3633C51.8026 29.7092 51.0518 29.8821 50.1744 29.8821ZM48.812 28.5281H50.0985C50.7003 28.5281 51.2022 28.4185 51.6044 28.1991C52.0065 27.977 52.3088 27.6466 52.5113 27.2079C52.7137 26.7664 52.815 26.2153 52.815 25.5544C52.815 24.8936 52.7137 24.3453 52.5113 23.9094C52.3088 23.4708 52.0093 23.1432 51.6128 22.9266C51.2191 22.7073 50.7298 22.5976 50.1449 22.5976H48.812V28.5281Z" fill="#FFE395"/>
<path d="M39.7638 29.8821H38.0934L41.1347 21.2437H43.0666L46.1121 29.8821H44.4417L42.1344 23.0152H42.0669L39.7638 29.8821ZM39.8186 26.4951H44.3742V27.752H39.8186V26.4951Z" fill="#FFE395"/>
<path d="M66.8955 10H68.6629L70.7762 13.8215H70.8605L72.9738 10H74.7412L71.5987 15.4159V18.6385H70.038V15.4159L66.8955 10Z" fill="#FFE395"/>
<path d="M61.6302 18.6385V10H63.1952V17.3267H66.9999V18.6385H61.6302Z" fill="#FFE395"/>
<path d="M53.904 18.6385V10H57.1435C57.8071 10 58.3639 10.1153 58.8139 10.3459C59.2666 10.5765 59.6083 10.8998 59.8389 11.316C60.0723 11.7294 60.189 12.2116 60.189 12.7628C60.189 13.3168 60.0709 13.7976 59.8346 14.2053C59.6012 14.6103 59.2568 14.9238 58.8012 15.146C58.3457 15.3653 57.7861 15.475 57.1224 15.475H54.8151V14.1758H56.9115C57.2996 14.1758 57.6173 14.1224 57.8648 14.0155C58.1123 13.9059 58.295 13.747 58.4131 13.5389C58.5341 13.328 58.5945 13.0693 58.5945 12.7628C58.5945 12.4563 58.5341 12.1948 58.4131 11.9782C58.2922 11.7589 58.108 11.593 57.8606 11.4805C57.6131 11.3652 57.2939 11.3076 56.9031 11.3076H55.4689V18.6385H53.904ZM58.3667 14.7242L60.5053 18.6385H58.759L56.6584 14.7242H58.3667Z" fill="#FFE395"/>
<path d="M46.4159 18.6385H44.7455L47.7867 10H49.7186L52.7641 18.6385H51.0937L48.7864 11.7716H48.7189L46.4159 18.6385ZM46.4707 15.2514H51.0262V16.5084H46.4707V15.2514Z" fill="#FFE395"/>
<path d="M38.0934 18.6385V10H43.712V11.3118H39.6584V13.657H43.4209V14.9688H39.6584V17.3267H43.7457V18.6385H38.0934Z" fill="#FFE395"/>
<defs>
<linearGradient id="paint0_linear_2133_10600" x1="32.5696" y1="37.7143" x2="18.0935" y2="28.7619" gradientUnits="userSpaceOnUse">
<stop stop-color="#B48B34"/>
<stop offset="0.5" stop-color="#E8C776"/>
<stop offset="0.856331" stop-color="#A67921"/>
</linearGradient>
<linearGradient id="paint1_linear_2133_10600" x1="2.47516" y1="37.7143" x2="16.9513" y2="28.7619" gradientUnits="userSpaceOnUse">
<stop stop-color="#B48B34"/>
<stop offset="0.5" stop-color="#E8C776"/>
<stop offset="0.856331" stop-color="#A67921"/>
</linearGradient>
<linearGradient id="paint2_linear_2133_10600" x1="2.47479" y1="15.238" x2="32.951" y2="15.238" gradientUnits="userSpaceOnUse">
<stop stop-color="#B48B34"/>
<stop offset="0.5" stop-color="#E8C776"/>
<stop offset="1" stop-color="#A67921"/>
</linearGradient>
<linearGradient id="paint3_linear_2133_10600" x1="-0.40032" y1="48.163" x2="40.2007" y2="43.7236" gradientUnits="userSpaceOnUse">
<stop stop-color="#7A5018"/>
<stop offset="1" stop-color="#FEEA9A"/>
</linearGradient>
<linearGradient id="paint4_linear_2133_10600" x1="21.7014" y1="3" x2="8.20136" y2="28.875" gradientUnits="userSpaceOnUse">
<stop stop-color="#8C5E1C"/>
<stop offset="1" stop-color="#261A08"/>
</linearGradient>
</defs>
</svg>
