<svg width="24" height="25" viewBox="0 0 24 25" fill="none" xmlns="http://www.w3.org/2000/svg">
<g clip-path="url(#clip0_2133_10515)">
<path d="M21.75 12.4999C21.7469 14.8828 20.8726 17.1824 19.2917 18.9655C17.7109 20.7485 15.5326 21.892 13.1671 22.1805C13.1145 22.1864 13.0611 22.1812 13.0107 22.165C12.9602 22.1489 12.9137 22.1222 12.8743 22.0868C12.8348 22.0513 12.8034 22.0079 12.782 21.9594C12.7605 21.911 12.7496 21.8585 12.75 21.8055V14.7499H15C15.1028 14.7501 15.2045 14.7292 15.2989 14.6884C15.3933 14.6476 15.4783 14.5879 15.5487 14.5129C15.619 14.4379 15.6732 14.3493 15.7078 14.2525C15.7424 14.1557 15.7568 14.0528 15.75 13.9502C15.7334 13.7573 15.6444 13.5779 15.5009 13.4479C15.3574 13.318 15.1701 13.2472 14.9765 13.2499H12.75V10.9999C12.75 10.602 12.908 10.2205 13.1893 9.93919C13.4706 9.65789 13.8521 9.49985 14.25 9.49985H15.75C15.8528 9.50008 15.9545 9.47916 16.0489 9.4384C16.1433 9.39764 16.2283 9.33791 16.2987 9.26292C16.369 9.18792 16.4232 9.09927 16.4578 9.00246C16.4924 8.90565 16.5068 8.80276 16.5 8.70017C16.4834 8.50698 16.3941 8.32727 16.2502 8.1973C16.1063 8.06733 15.9185 7.99677 15.7246 7.99985H14.25C13.4543 7.99985 12.6912 8.31592 12.1286 8.87853C11.566 9.44114 11.25 10.2042 11.25 10.9999V13.2499H8.99996C8.89714 13.2496 8.79538 13.2705 8.70099 13.3113C8.60659 13.3521 8.52159 13.4118 8.45126 13.4868C8.38092 13.5618 8.32676 13.6504 8.29213 13.7472C8.2575 13.8441 8.24315 13.947 8.24996 14.0495C8.26655 14.2427 8.35579 14.4224 8.49968 14.5524C8.64357 14.6824 8.8314 14.7529 9.02527 14.7499H11.25V21.8074C11.2503 21.8603 11.2394 21.9127 11.218 21.9611C11.1967 22.0095 11.1653 22.0528 11.126 22.0882C11.0866 22.1237 11.0403 22.1504 10.9899 22.1666C10.9395 22.1828 10.8863 22.1882 10.8337 22.1824C8.40498 21.8866 6.1758 20.6898 4.5874 18.8288C2.99901 16.9678 2.16716 14.5783 2.25652 12.1333C2.44402 7.07079 6.54464 2.95517 11.6109 2.75829C12.9225 2.70748 14.231 2.92175 15.4579 3.38826C16.6848 3.85477 17.8051 4.56395 18.7516 5.47338C19.6981 6.38281 20.4515 7.47381 20.9667 8.68111C21.4819 9.88842 21.7483 11.1872 21.75 12.4999Z" fill="#FFE395"/>
</g>
<defs>
<clipPath id="clip0_2133_10515">
<rect width="24" height="24" fill="white" transform="translate(0 0.5)"/>
</clipPath>
</defs>
</svg>
