<svg width="16" height="17" viewBox="0 0 16 17" fill="none" xmlns="http://www.w3.org/2000/svg">
<g clip-path="url(#clip0_2133_13657)">
<path d="M8 8.5L4.2 5.65C4.1379 5.60343 4.0875 5.54303 4.05279 5.47361C4.01807 5.40418 4 5.32762 4 5.25V3C4 2.86739 4.05268 2.74021 4.14645 2.64645C4.24021 2.55268 4.36739 2.5 4.5 2.5H11.5C11.6326 2.5 11.7598 2.55268 11.8536 2.64645C11.9473 2.74021 12 2.86739 12 3V5.2275C11.9998 5.30459 11.9817 5.38059 11.9472 5.44955C11.9127 5.5185 11.8628 5.57855 11.8013 5.625L8 8.5Z" stroke="#FEDB6B" stroke-width="1.5" stroke-linecap="round" stroke-linejoin="round"/>
<path d="M8 8.5L4.2 11.35C4.1379 11.3966 4.0875 11.457 4.05279 11.5264C4.01807 11.5958 4 11.6724 4 11.75V14C4 14.1326 4.05268 14.2598 4.14645 14.3536C4.24021 14.4473 4.36739 14.5 4.5 14.5H11.5C11.6326 14.5 11.7598 14.4473 11.8536 14.3536C11.9473 14.2598 12 14.1326 12 14V11.7725C12 11.6952 11.982 11.619 11.9475 11.5498C11.913 11.4806 11.8629 11.4203 11.8013 11.3737L8 8.5Z" stroke="#FEDB6B" stroke-width="1.5" stroke-linecap="round" stroke-linejoin="round"/>
<path d="M8 11V8.5" stroke="#FEDB6B" stroke-width="1.5" stroke-linecap="round" stroke-linejoin="round"/>
<path d="M4.66602 6H11.3066" stroke="#FEDB6B" stroke-width="1.5" stroke-linecap="round" stroke-linejoin="round"/>
</g>
<defs>
<clipPath id="clip0_2133_13657">
<rect width="16" height="16" fill="white" transform="translate(0 0.5)"/>
</clipPath>
</defs>
</svg>
