<svg width="24" height="25" viewBox="0 0 24 25" fill="none" xmlns="http://www.w3.org/2000/svg">
<g clip-path="url(#clip0_2133_10555)">
<path d="M12.9956 12.5C13.4097 12.5001 13.8222 12.5514 14.2238 12.6528C14.1703 13.4225 13.9106 14.0591 13.4634 14.4913C13.0464 14.8967 12.4879 15.124 11.9062 15.125C10.7934 15.125 10.5 14.4144 10.5 13.9934C10.5 12.9687 11.7937 12.5 12.9956 12.5ZM21 12.5C21 18.605 17.6353 22.25 12 22.25C6.36469 22.25 3 18.605 3 12.5C3 6.395 6.36469 2.75 12 2.75C17.6353 2.75 21 6.395 21 12.5ZM6.75 12.5C6.75 8.46219 8.4675 6.5 12 6.5C14.4694 6.5 16.0312 7.445 16.7634 9.39031C16.8338 9.57679 16.9754 9.72768 17.157 9.80979C17.3386 9.89189 17.5454 9.89849 17.7319 9.82812C17.9184 9.75776 18.0692 9.6162 18.1514 9.43458C18.2335 9.25296 18.2401 9.04617 18.1697 8.85969C16.9594 5.66937 14.1469 5 12 5C9.55312 5 7.7325 5.81563 6.58875 7.42438C5.7 8.67406 5.25 10.3812 5.25 12.5C5.25 14.6187 5.7 16.3259 6.58875 17.5756C7.7325 19.1844 9.55312 20 12 20C14.2922 20 15.7331 19.175 16.5384 18.4831C17.5472 17.6159 18.15 16.4309 18.15 15.3125C18.15 13.9719 17.5322 12.8009 16.41 12.0153C16.1793 11.8548 15.9356 11.7137 15.6816 11.5934C15.4856 10.22 14.7441 9.17938 13.5872 8.68062C12.2278 8.09375 10.5 8.36844 9.48844 9.33031C9.34398 9.46706 9.25976 9.6556 9.25431 9.85445C9.24886 10.0533 9.32262 10.2462 9.45938 10.3906C9.59613 10.5351 9.78467 10.6193 9.98351 10.6248C10.1824 10.6302 10.3752 10.5564 10.5197 10.4197C11.0287 9.93781 12.0938 9.66969 12.9947 10.0588C13.4536 10.2527 13.8168 10.6209 14.0044 11.0825C13.6707 11.0296 13.3334 11.003 12.9956 11.0028C10.6434 11 9 12.2328 9 13.9934C9 15.5187 10.2188 16.625 11.9062 16.625C12.8778 16.6225 13.8105 16.2431 14.5078 15.5666C14.9484 15.1363 15.4556 14.4228 15.6488 13.3166C15.9652 13.5429 16.2217 13.843 16.3962 14.1907C16.5706 14.5385 16.6578 14.9235 16.65 15.3125C16.65 16.5978 15.1725 18.5 12 18.5C8.4675 18.5 6.75 16.5378 6.75 12.5Z" fill="#FFE395"/>
</g>
<defs>
<clipPath id="clip0_2133_10555">
<rect width="24" height="24" fill="white" transform="translate(0 0.5)"/>
</clipPath>
</defs>
</svg>
