<svg width="23" height="17" viewBox="0 0 23 17" fill="none" xmlns="http://www.w3.org/2000/svg">
<path d="M21.8105 4.52251L9.77304 16.56C9.49176 16.8411 9.11038 16.999 8.71272 16.999C8.31507 16.999 7.93369 16.8411 7.65241 16.56L0.938036 9.81001C0.65723 9.52877 0.499512 9.14759 0.499512 8.75017C0.499512 8.35274 0.65723 7.97156 0.938036 7.69032L2.81304 5.81532C3.09416 5.53538 3.47474 5.3782 3.87147 5.3782C4.26821 5.3782 4.64879 5.53538 4.92991 5.81532L8.75022 9.52032L17.8215 0.560636C18.1026 0.280403 18.4834 0.123047 18.8804 0.123047C19.2773 0.123047 19.6581 0.280403 19.9393 0.560636L21.8096 2.39251C21.9503 2.53189 22.0619 2.69775 22.1381 2.8805C22.2144 3.06326 22.2537 3.2593 22.2538 3.45732C22.2539 3.65533 22.2147 3.85141 22.1387 4.03423C22.0626 4.21705 21.9511 4.383 21.8105 4.52251Z" fill="#FEEA9A"/>
</svg>
