<svg width="7" height="7" viewBox="0 0 7 7" fill="none" xmlns="http://www.w3.org/2000/svg">
<path d="M5.77814 1.46042C5.73384 1.43753 5.69071 1.41243 5.64892 1.38522C5.52739 1.30487 5.41597 1.21021 5.31705 1.10326C5.06955 0.820065 4.97711 0.532773 4.94306 0.331627H4.94443C4.91599 0.164666 4.92775 0.0566406 4.92952 0.0566406H3.80223V4.41567C3.80223 4.47419 3.80223 4.53203 3.79977 4.58919C3.79977 4.5963 3.79909 4.60287 3.79868 4.61052C3.79868 4.61367 3.79868 4.61695 3.79799 4.62023C3.79799 4.62105 3.79799 4.62187 3.79799 4.62269C3.78611 4.7791 3.73597 4.93018 3.652 5.06266C3.56802 5.19513 3.45277 5.30494 3.31639 5.38243C3.17425 5.46329 3.0135 5.50571 2.84997 5.50549C2.32475 5.50549 1.89907 5.07722 1.89907 4.54831C1.89907 4.01939 2.32475 3.59112 2.84997 3.59112C2.94939 3.59103 3.0482 3.60667 3.14273 3.63748L3.1441 2.48967C2.85713 2.4526 2.56559 2.47541 2.28788 2.55665C2.01016 2.6379 1.7523 2.77581 1.53055 2.9617C1.33625 3.13052 1.17291 3.33196 1.04786 3.55694C1.00027 3.63898 0.820732 3.96866 0.79899 4.50373C0.785316 4.80743 0.876522 5.12207 0.920006 5.25211V5.25485C0.947354 5.33142 1.05333 5.59273 1.22603 5.81302C1.36529 5.98973 1.52983 6.14496 1.71433 6.2737V6.27097L1.71707 6.2737C2.2628 6.64455 2.86788 6.62021 2.86788 6.62021C2.97262 6.61597 3.3235 6.62021 3.72196 6.43137C4.16391 6.22202 4.41551 5.91011 4.41551 5.91011C4.57625 5.72374 4.70406 5.51135 4.79347 5.28206C4.89547 5.01391 4.92952 4.6923 4.92952 4.56376V2.2512C4.9432 2.2594 5.12534 2.37987 5.12534 2.37987C5.12534 2.37987 5.38774 2.54806 5.79714 2.65759C6.09086 2.73553 6.48659 2.75194 6.48659 2.75194V1.63285C6.34794 1.6479 6.06639 1.60414 5.77814 1.46042Z" fill="#DDA74D"/>
</svg>
