<svg width="24" height="25" viewBox="0 0 24 25" fill="none" xmlns="http://www.w3.org/2000/svg">
<g clip-path="url(#clip0_2133_10545)">
<path d="M21.75 8V11.75C21.75 11.9489 21.671 12.1397 21.5303 12.2803C21.3897 12.421 21.1989 12.5 21 12.5C19.4333 12.5036 17.889 12.1269 16.5 11.4022V15.125C16.5 17.0147 15.7493 18.8269 14.4131 20.1631C13.0769 21.4993 11.2647 22.25 9.375 22.25C7.48533 22.25 5.67306 21.4993 4.33686 20.1631C3.00067 18.8269 2.25 17.0147 2.25 15.125C2.25 11.6656 4.77281 8.6075 8.11875 8.01125C8.22669 7.99206 8.33752 7.99678 8.44345 8.02505C8.54937 8.05333 8.6478 8.10449 8.73182 8.17492C8.81584 8.24535 8.88339 8.33334 8.92972 8.4327C8.97606 8.53206 9.00005 8.64037 9 8.75V12.7522C9.00005 12.8941 8.95981 13.0332 8.88397 13.1532C8.80813 13.2731 8.6998 13.3691 8.57156 13.43C8.26841 13.5738 8.00939 13.7962 7.82151 14.0742C7.63364 14.3522 7.5238 14.6755 7.50345 15.0104C7.4831 15.3453 7.55299 15.6795 7.70582 15.9782C7.85865 16.2769 8.08883 16.5291 8.37234 16.7085C8.65586 16.888 8.98232 16.988 9.31768 16.9983C9.65304 17.0085 9.98501 16.9286 10.279 16.7668C10.5729 16.6051 10.8181 16.3674 10.9889 16.0786C11.1597 15.7898 11.2498 15.4605 11.25 15.125V2.75C11.25 2.55109 11.329 2.36032 11.4697 2.21967C11.6103 2.07902 11.8011 2 12 2H15.75C15.9489 2 16.1397 2.07902 16.2803 2.21967C16.421 2.36032 16.5 2.55109 16.5 2.75C16.5012 3.94309 16.9757 5.08697 17.8194 5.93061C18.663 6.77425 19.8069 7.24876 21 7.25C21.1989 7.25 21.3897 7.32902 21.5303 7.46967C21.671 7.61032 21.75 7.80109 21.75 8Z" fill="#FFE395"/>
</g>
<defs>
<clipPath id="clip0_2133_10545">
<rect width="24" height="24" fill="white" transform="translate(0 0.5)"/>
</clipPath>
</defs>
</svg>
