<svg width="56" height="56" viewBox="0 0 56 56" fill="none" xmlns="http://www.w3.org/2000/svg">
<g clip-path="url(#clip0_2162_15725)">
<path d="M43.75 12.25V7.875" stroke="#FEDF7A" stroke-width="3" stroke-linecap="round" stroke-linejoin="round"/>
<path d="M43.7505 12.2503L39.5898 10.8984" stroke="#FEDF7A" stroke-width="3" stroke-linecap="round" stroke-linejoin="round"/>
<path d="M43.7502 12.25L41.1777 15.7894" stroke="#FEDF7A" stroke-width="3" stroke-linecap="round" stroke-linejoin="round"/>
<path d="M43.75 12.25L46.3225 15.7894" stroke="#FEDF7A" stroke-width="3" stroke-linecap="round" stroke-linejoin="round"/>
<path d="M43.75 12.2503L47.9106 10.8984" stroke="#FEDF7A" stroke-width="3" stroke-linecap="round" stroke-linejoin="round"/>
<path d="M28 35C32.8325 35 36.75 31.0825 36.75 26.25C36.75 21.4175 32.8325 17.5 28 17.5C23.1675 17.5 19.25 21.4175 19.25 26.25C19.25 31.0825 23.1675 35 28 35Z" stroke="#FEDF7A" stroke-width="3" stroke-linecap="round" stroke-linejoin="round"/>
<path d="M13.957 43.6123C15.2737 41.0188 17.2828 38.8406 19.7617 37.3191C22.2405 35.7976 25.0922 34.9922 28.0008 34.9922C30.9093 34.9922 33.7611 35.7976 36.2399 37.3191C38.7187 38.8406 40.7279 41.0188 42.0445 43.6123" stroke="#FEDF7A" stroke-width="3" stroke-linecap="round" stroke-linejoin="round"/>
<path d="M48.7092 24.5001C49.4475 28.8868 48.7725 33.3946 46.7818 37.3727C44.791 41.3507 41.5875 44.5932 37.6337 46.6318C33.68 48.6705 29.1806 49.3998 24.7854 48.7146C20.3901 48.0293 16.3263 45.9649 13.1808 42.8194C10.0353 39.6739 7.97091 35.6101 7.28564 31.2148C6.60037 26.8196 7.32972 22.3202 9.36836 18.3665C11.407 14.4127 14.6495 11.2092 18.6275 9.21845C22.6056 7.2277 27.1134 6.55274 31.5001 7.29103" stroke="#FEDF7A" stroke-width="3" stroke-linecap="round" stroke-linejoin="round"/>
</g>
<defs>
<clipPath id="clip0_2162_15725">
<rect width="56" height="56" fill="white"/>
</clipPath>
</defs>
</svg>
