<svg width="77" height="18" viewBox="0 0 77 18" fill="none" xmlns="http://www.w3.org/2000/svg">
<path d="M19.4549 2.91467L16.8441 15.1186H13.6872L16.2983 2.91467H19.4549ZM32.7372 10.7948L34.3993 6.21179L35.3557 10.7948H32.7372ZM36.2596 15.1186H39.1797L36.6315 2.91467H33.9362C33.3305 2.91467 32.8195 3.26694 32.592 3.81002L27.8557 15.1186H31.1709L31.8291 13.2962H35.8795L36.2596 15.1186ZM28.0202 11.1339C28.0337 7.91289 23.5659 7.7356 23.5968 6.29677C23.606 5.85837 24.0236 5.39331 24.9355 5.27395C25.3886 5.21485 26.6343 5.16966 28.0488 5.82051L28.6027 3.23256C27.8429 2.95677 26.8653 2.69141 25.6493 2.69141C22.5291 2.69141 20.3328 4.3504 20.3143 6.72591C20.2946 8.48263 21.8821 9.46296 23.0784 10.047C24.3082 10.6453 24.7215 11.0285 24.7161 11.5634C24.708 12.3827 23.735 12.7435 22.8273 12.7578C21.2398 12.7829 20.3186 12.3294 19.5843 11.9872L19.0122 14.6613C19.7496 15 21.1112 15.2943 22.5237 15.3094C25.8398 15.3094 28.0094 13.6709 28.0202 11.1339ZM14.9437 2.91467L9.82886 15.1186H6.49118L3.9743 5.37901C3.82134 4.77915 3.68847 4.55975 3.2238 4.30675C2.46557 3.89538 1.21215 3.50874 0.109375 3.26925L0.184696 2.91467H5.55643C6.24088 2.91467 6.85697 3.37045 7.01225 4.15881L8.34176 11.2212L11.6269 2.91467H14.9437Z" fill="#1434CB"/>
<path d="M66.8516 2.24051H59.3288V15.7593H66.8516V2.24051Z" fill="#FF5F00"/>
<path d="M59.8065 8.99988C59.8053 7.69792 60.1003 6.41276 60.6693 5.24169C61.2382 4.07061 62.0661 3.04432 63.0902 2.2405C61.8219 1.24358 60.2987 0.623606 58.6947 0.451447C57.0907 0.279288 55.4706 0.561881 54.0197 1.26694C52.5687 1.972 51.3453 3.07107 50.4894 4.43853C49.6336 5.80599 49.1797 7.38666 49.1797 8.99988C49.1797 10.6131 49.6336 12.1938 50.4894 13.5612C51.3453 14.9287 52.5687 16.0278 54.0197 16.7328C55.4706 17.4379 57.0907 17.7205 58.6947 17.5483C60.2987 17.3761 61.8219 16.7562 63.0902 15.7593C62.0661 14.9554 61.2382 13.9291 60.6693 12.7581C60.1004 11.587 59.8053 10.3018 59.8065 8.99988Z" fill="#EB001B"/>
<path d="M77.0004 8.99988C77.0004 10.6131 76.5466 12.1937 75.6908 13.5612C74.835 14.9287 73.6116 16.0277 72.1607 16.7328C70.7097 17.4379 69.0897 17.7205 67.4857 17.5483C65.8817 17.3762 64.3585 16.7562 63.0902 15.7593C64.1135 14.9546 64.9408 13.9282 65.5096 12.7573C66.0784 11.5864 66.374 10.3016 66.374 8.99988C66.374 7.69813 66.0784 6.41337 65.5096 5.24248C64.9408 4.07159 64.1135 3.04513 63.0902 2.2405C64.3585 1.24358 65.8817 0.623601 67.4857 0.451444C69.0897 0.279287 70.7097 0.561893 72.1607 1.26696C73.6116 1.97203 74.835 3.0711 75.6908 4.43856C76.5466 5.80602 77.0004 7.38668 77.0004 8.99988Z" fill="#F79E1B"/>
<path d="M76.1801 14.3274V14.0506H76.2917V13.9943H76.0075V14.0506H76.1192V14.3274H76.1801ZM76.7319 14.3274V13.9937H76.6448L76.5446 14.2232L76.4444 13.9937H76.3572V14.3274H76.4187V14.0757L76.5127 14.2927H76.5765L76.6705 14.0751V14.3274H76.7319Z" fill="#F79E1B"/>
</svg>
