<svg width="24" height="25" viewBox="0 0 24 25" fill="none" xmlns="http://www.w3.org/2000/svg">
<g clip-path="url(#clip0_2133_10535)">
<path d="M20.1566 21.1109C20.092 21.2286 19.9971 21.3267 19.8817 21.3951C19.7662 21.4636 19.6346 21.4998 19.5004 21.5H15.0004C14.8741 21.5 14.75 21.4681 14.6393 21.4073C14.5287 21.3465 14.4352 21.2587 14.3676 21.1522L10.5716 15.1869L5.05536 21.2544C4.92089 21.3988 4.7349 21.4845 4.53772 21.4927C4.34054 21.5009 4.14805 21.4311 4.002 21.2984C3.85595 21.1657 3.7681 20.9807 3.7575 20.7836C3.74689 20.5866 3.81439 20.3933 3.94536 20.2456L9.7363 13.8706L3.86755 4.65313C3.79527 4.53973 3.75481 4.40898 3.7504 4.27458C3.746 4.14018 3.7778 4.00707 3.8425 3.88918C3.90719 3.77129 4.0024 3.67296 4.11813 3.60449C4.23387 3.53603 4.36589 3.49993 4.50036 3.5H9.00036C9.12659 3.50004 9.25077 3.53194 9.36139 3.59274C9.472 3.65353 9.56549 3.74127 9.63318 3.84781L13.4291 9.81312L18.9454 3.74562C19.0798 3.60117 19.2658 3.51555 19.463 3.50731C19.6602 3.49907 19.8527 3.56888 19.9987 3.70161C20.1448 3.83435 20.2326 4.01929 20.2432 4.21636C20.2538 4.41343 20.1863 4.60674 20.0554 4.75438L14.2644 11.1247L20.1332 20.3478C20.2051 20.4613 20.2451 20.5919 20.2493 20.7262C20.2534 20.8604 20.2214 20.9933 20.1566 21.1109Z" fill="#FFE395"/>
</g>
<defs>
<clipPath id="clip0_2133_10535">
<rect width="24" height="24" fill="white" transform="translate(0 0.5)"/>
</clipPath>
</defs>
</svg>
