<svg width="1227" height="208" viewBox="0 0 1227 208" fill="none" xmlns="http://www.w3.org/2000/svg">
<path fill-rule="evenodd" clip-rule="evenodd" d="M0.666016 0H1226.61V191.642H822.976V188.824H1223.79V2.81826H3.48428V188.824H406.235V191.642H0.666016V0Z" fill="url(#paint0_radial_2448_238)"/>
<path d="M1148.3 40.1172C1155.52 40.1172 1161.68 41.2322 1166.78 43.4623C1171.87 45.6923 1175.86 48.5595 1178.72 52.0639C1181.7 55.4621 1183.55 59.285 1184.3 63.5327C1185.04 67.6743 1184.72 71.7627 1183.34 75.798C1181.96 79.7271 1179.47 83.3377 1175.86 86.6297C1172.35 89.9217 1167.79 92.3641 1162.16 93.957L1183.18 119.284C1187.01 123.85 1190.14 127.195 1192.58 129.319C1195.02 131.443 1197.73 132.558 1200.71 132.664H1202.3V135.85H1185.41C1182.23 135.85 1179.63 135.744 1177.61 135.531C1175.59 135.213 1173.73 134.576 1172.03 133.62C1170.44 132.558 1168.74 131.071 1166.94 129.16C1165.24 127.142 1163.06 124.487 1160.4 121.195L1139.86 95.7092H1125.68V121.992C1125.68 125.178 1126.64 127.779 1128.55 129.797C1130.56 131.709 1133.17 132.664 1136.35 132.664H1136.51V135.85H1095.73V132.664H1095.89C1099.08 132.664 1101.63 131.709 1103.54 129.797C1105.56 127.779 1106.57 125.178 1106.57 121.992V53.9754C1106.57 50.7896 1105.56 48.241 1103.54 46.3295C1101.63 44.3118 1099.08 43.303 1095.89 43.303H1095.73V40.1172H1148.3ZM1144.48 92.5234C1149.04 92.5234 1152.81 91.3022 1155.79 88.8597C1158.76 86.4173 1160.99 83.3908 1162.48 79.7802C1164.07 76.1697 1164.86 72.2406 1164.86 67.9928C1164.86 63.6389 1164.07 59.6567 1162.48 56.0461C1160.99 52.4356 1158.76 49.4091 1155.79 46.9667C1152.81 44.5242 1149.04 43.303 1144.48 43.303H1125.68V92.5234H1144.48Z" fill="url(#paint1_radial_2448_238)"/>
<path d="M1039.55 43.1437L1045.45 40.1172L1083.04 123.903C1084.21 126.558 1086.01 128.682 1088.45 130.275C1091 131.868 1093.71 132.664 1096.58 132.664V135.85H1056.44V132.664C1059.3 132.664 1061.22 131.868 1062.17 130.275C1063.23 128.682 1063.18 126.558 1062.01 123.903L1052.61 103.036H1017.89L1009.29 123.426C1008.12 126.187 1008.07 128.417 1009.13 130.116C1010.19 131.815 1012.26 132.664 1015.34 132.664H1016.62V135.85H991.766V132.664C994.846 132.664 997.66 131.815 1000.21 130.116C1002.86 128.31 1004.88 125.762 1006.26 122.47L1039.55 43.1437ZM1051.18 99.8507L1034.77 62.8956L1019.16 99.8507H1051.18Z" fill="url(#paint2_radial_2448_238)"/>
<path d="M945.079 132.664C948.796 132.664 952.885 132.611 957.345 132.505C961.911 132.399 966.318 131.868 970.566 130.912C974.92 129.956 978.902 128.363 982.512 126.133C986.123 123.797 988.884 120.399 990.795 115.939L993.663 116.417L989.84 139.832H989.043C988.618 138.877 987.503 138.08 985.698 137.443C983.999 136.912 981.875 136.54 979.327 136.328C976.884 136.116 974.176 135.956 971.203 135.85C968.336 135.85 965.521 135.85 962.76 135.85H915.133V132.664H915.292C918.478 132.664 921.027 131.709 922.938 129.797C924.956 127.779 925.965 125.178 925.965 121.992V53.9754C925.965 50.7896 924.956 48.241 922.938 46.3295C921.027 44.3118 918.478 43.303 915.292 43.303H915.133V40.1172H955.911V43.303H955.752C952.566 43.303 949.964 44.3118 947.947 46.3295C946.035 48.241 945.079 50.7896 945.079 53.9754V132.664Z" fill="url(#paint3_radial_2448_238)"/>
<path d="M866.057 132.664C869.774 132.664 873.862 132.611 878.322 132.505C882.888 132.399 887.296 131.868 891.543 130.912C895.897 129.956 899.879 128.363 903.49 126.133C907.1 123.797 909.861 120.399 911.773 115.939L914.64 116.417L910.817 139.832H910.021C909.596 138.877 908.481 138.08 906.676 137.443C904.977 136.912 902.853 136.54 900.304 136.328C897.862 136.116 895.154 135.956 892.18 135.85C889.313 135.85 886.499 135.85 883.738 135.85H836.111V132.664H836.27C839.456 132.664 842.004 131.709 843.916 129.797C845.933 127.779 846.942 125.178 846.942 121.992V53.9754C846.942 50.7896 845.933 48.241 843.916 46.3295C842.004 44.3118 839.456 43.303 836.27 43.303H836.111V40.1172H876.889V43.303H876.729C873.544 43.303 870.942 44.3118 868.924 46.3295C867.013 48.241 866.057 50.7896 866.057 53.9754V132.664Z" fill="url(#paint4_radial_2448_238)"/>
<path d="M785.005 137.443C777.04 137.443 770.032 136.062 763.979 133.301C758.032 130.434 753.041 126.664 749.005 121.992C745.076 117.319 742.103 112.063 740.085 106.222C738.068 100.275 737.059 94.2225 737.059 88.0633C737.059 81.7979 738.068 75.7449 740.085 69.9043C742.103 63.9575 745.076 58.6479 749.005 53.9754C753.041 49.3029 758.032 45.5861 763.979 42.8251C770.032 39.9579 777.04 38.5243 785.005 38.5243C792.969 38.5243 799.925 39.9579 805.872 42.8251C811.925 45.5861 816.916 49.3029 820.845 53.9754C824.88 58.6479 827.907 63.9575 829.924 69.9043C831.942 75.7449 832.951 81.7979 832.951 88.0633C832.951 94.2225 831.942 100.275 829.924 106.222C827.907 112.063 824.88 117.319 820.845 121.992C816.916 126.664 811.925 130.434 805.872 133.301C799.925 136.062 792.969 137.443 785.005 137.443ZM785.005 133.62C791.058 133.62 796.049 131.39 799.978 126.93C804.013 122.364 807.04 116.682 809.057 109.886C811.075 103.09 812.084 95.7623 812.084 87.904C812.084 80.0457 811.075 72.7184 809.057 65.9221C807.04 59.1257 804.013 53.4975 799.978 49.0374C796.049 44.4711 791.058 42.188 785.005 42.188C778.952 42.188 773.908 44.4711 769.872 49.0374C765.943 53.4975 762.97 59.1257 760.952 65.9221C758.934 72.7184 757.926 80.0457 757.926 87.904C757.926 95.7623 758.934 103.09 760.952 109.886C762.97 116.682 765.943 122.364 769.872 126.93C773.908 131.39 778.952 133.62 785.005 133.62Z" fill="url(#paint5_radial_2448_238)"/>
<path d="M638.088 132.664H638.247C641.433 132.664 643.981 131.709 645.893 129.797C647.911 127.779 648.919 125.178 648.919 121.992V53.9754C648.919 50.7896 647.911 48.241 645.893 46.3295C643.981 44.3118 641.433 43.303 638.247 43.303H638.088V40.1172H687.467C695.432 40.1172 702.175 41.4977 707.697 44.2587C713.325 46.9136 717.892 50.471 721.396 54.9311C724.9 59.3912 727.449 64.4885 729.042 70.2229C730.741 75.9573 731.591 81.7979 731.591 87.7447C731.591 93.7977 730.741 99.7445 729.042 105.585C727.449 111.32 724.9 116.47 721.396 121.036C717.892 125.496 713.325 129.107 707.697 131.868C702.175 134.523 695.432 135.85 687.467 135.85H638.088V132.664ZM683.645 132.664C688.742 132.664 693.043 131.39 696.547 128.841C700.051 126.293 702.812 122.948 704.83 118.806C706.954 114.558 708.441 109.78 709.29 104.47C710.246 99.0542 710.724 93.5853 710.724 88.0633C710.724 82.4351 710.246 76.9661 709.29 71.6565C708.441 66.3469 706.954 61.5682 704.83 57.3205C702.812 53.0727 700.051 49.6746 696.547 47.1259C693.043 44.5773 688.742 43.303 683.645 43.303H668.034V132.664H683.645Z" fill="url(#paint6_radial_2448_238)"/>
<path d="M513.275 53.9754C513.275 50.7896 512.266 48.241 510.248 46.3295C508.337 44.3118 505.788 43.303 502.602 43.303H502.443V40.1172H528.089L587.185 109.249V53.9754C587.185 50.7896 586.176 48.241 584.158 46.3295C582.247 44.3118 579.698 43.303 576.513 43.303H576.353V40.1172H601.202V43.303H601.043C597.857 43.303 595.256 44.3118 593.238 46.3295C591.327 48.241 590.371 50.7896 590.371 53.9754V135.85H585.114L516.461 55.8868V121.992C516.461 125.178 517.416 127.779 519.328 129.797C521.345 131.709 523.947 132.664 527.133 132.664H527.292V135.85H502.443V132.664H502.602C505.788 132.664 508.337 131.709 510.248 129.797C512.266 127.779 513.275 125.178 513.275 121.992V53.9754Z" fill="url(#paint7_radial_2448_238)"/>
<path d="M451.337 137.443C443.373 137.443 436.364 136.062 430.311 133.301C424.364 130.434 419.373 126.664 415.338 121.992C411.409 117.319 408.435 112.063 406.418 106.222C404.4 100.275 403.391 94.2225 403.391 88.0633C403.391 81.7979 404.4 75.7449 406.418 69.9043C408.435 63.9575 411.409 58.6479 415.338 53.9754C419.373 49.3029 424.364 45.5861 430.311 42.8251C436.364 39.9579 443.373 38.5243 451.337 38.5243C459.302 38.5243 466.257 39.9579 472.204 42.8251C478.257 45.5861 483.248 49.3029 487.177 53.9754C491.213 58.6479 494.239 63.9575 496.257 69.9043C498.275 75.7449 499.283 81.7979 499.283 88.0633C499.283 94.2225 498.275 100.275 496.257 106.222C494.239 112.063 491.213 117.319 487.177 121.992C483.248 126.664 478.257 130.434 472.204 133.301C466.257 136.062 459.302 137.443 451.337 137.443ZM451.337 133.62C457.39 133.62 462.381 131.39 466.31 126.93C470.346 122.364 473.372 116.682 475.39 109.886C477.408 103.09 478.416 95.7623 478.416 87.904C478.416 80.0457 477.408 72.7184 475.39 65.9221C473.372 59.1257 470.346 53.4975 466.31 49.0374C462.381 44.4711 457.39 42.188 451.337 42.188C445.284 42.188 440.24 44.4711 436.205 49.0374C432.276 53.4975 429.302 59.1257 427.285 65.9221C425.267 72.7184 424.258 80.0457 424.258 87.904C424.258 95.7623 425.267 103.09 427.285 109.886C429.302 116.682 432.276 122.364 436.205 126.93C440.24 131.39 445.284 133.62 451.337 133.62Z" fill="url(#paint8_radial_2448_238)"/>
<path d="M370.319 53.9754C370.319 50.7896 369.31 48.241 367.292 46.3295C365.381 44.3118 362.832 43.303 359.646 43.303H359.487V40.1172H400.265V43.303H400.106C396.92 43.303 394.318 44.3118 392.301 46.3295C390.389 48.241 389.434 50.7896 389.434 53.9754V121.992C389.434 125.178 390.389 127.779 392.301 129.797C394.318 131.709 396.92 132.664 400.106 132.664H400.265V135.85H359.487V132.664H359.646C362.832 132.664 365.381 131.709 367.292 129.797C369.31 127.779 370.319 125.178 370.319 121.992V53.9754Z" fill="url(#paint9_radial_2448_238)"/>
<path d="M310.411 132.664C314.128 132.664 318.216 132.611 322.676 132.505C327.243 132.399 331.65 131.868 335.897 130.912C340.251 129.956 344.234 128.363 347.844 126.133C351.455 123.797 354.216 120.399 356.127 115.939L358.994 116.417L355.171 139.832H354.375C353.95 138.877 352.835 138.08 351.03 137.443C349.331 136.912 347.207 136.54 344.658 136.328C342.216 136.116 339.508 135.956 336.535 135.85C333.667 135.85 330.853 135.85 328.092 135.85H280.465V132.664H280.624C283.81 132.664 286.358 131.709 288.27 129.797C290.288 127.779 291.296 125.178 291.296 121.992V53.9754C291.296 50.7896 290.288 48.241 288.27 46.3295C286.358 44.3118 283.81 43.303 280.624 43.303H280.465V40.1172H321.243V43.303H321.083C317.898 43.303 315.296 44.3118 313.278 46.3295C311.367 48.241 310.411 50.7896 310.411 53.9754V132.664Z" fill="url(#paint10_radial_2448_238)"/>
<path d="M231.389 132.664C235.105 132.664 239.194 132.611 243.654 132.505C248.22 132.399 252.627 131.868 256.875 130.912C261.229 129.956 265.211 128.363 268.822 126.133C272.432 123.797 275.193 120.399 277.105 115.939L279.972 116.417L276.149 139.832H275.353C274.928 138.877 273.813 138.08 272.007 137.443C270.308 136.912 268.185 136.54 265.636 136.328C263.193 136.116 260.486 135.956 257.512 135.85C254.645 135.85 251.831 135.85 249.07 135.85H201.442V132.664H201.602C204.787 132.664 207.336 131.709 209.247 129.797C211.265 127.779 212.274 125.178 212.274 121.992V53.9754C212.274 50.7896 211.265 48.241 209.247 46.3295C207.336 44.3118 204.787 43.303 201.602 43.303H201.442V40.1172H242.22V43.303H242.061C238.875 43.303 236.274 44.3118 234.256 46.3295C232.344 48.241 231.389 50.7896 231.389 53.9754V132.664Z" fill="url(#paint11_radial_2448_238)"/>
<path d="M169.963 53.9754C169.963 50.7896 168.954 48.241 166.936 46.3295C165.025 44.3118 162.476 43.303 159.29 43.303H159.131V40.1172H199.909V43.303H199.75C196.564 43.303 193.962 44.3118 191.945 46.3295C190.033 48.241 189.077 50.7896 189.077 53.9754V121.992C189.077 125.178 190.033 127.779 191.945 129.797C193.962 131.709 196.564 132.664 199.75 132.664H199.909V135.85H159.131V132.664H159.29C162.476 132.664 165.025 131.709 166.936 129.797C168.954 127.779 169.963 125.178 169.963 121.992V53.9754Z" fill="url(#paint12_radial_2448_238)"/>
<path d="M116.761 135.85V132.664H116.921C120.106 132.664 122.655 131.709 124.567 129.797C126.584 127.779 127.593 125.178 127.593 121.992V52.0639L93.0273 135.85H89.8415L46.9927 62.0991V121.992C46.9927 125.178 47.9484 127.779 49.8599 129.797C51.8776 131.709 54.4793 132.664 57.6651 132.664H57.8244V135.85H32.9752V132.664H33.1345C36.3203 132.664 38.8689 131.709 40.7804 129.797C42.7981 127.779 43.8069 125.178 43.8069 121.992V53.9754C43.8069 50.7896 42.7981 48.241 40.7804 46.3295C38.8689 44.3118 36.3203 43.303 33.1345 43.303H32.9752V40.1172H56.3907L98.7617 113.39L129.186 40.1172H157.539V43.303H157.38C154.194 43.303 151.593 44.3118 149.575 46.3295C147.664 48.241 146.708 50.7896 146.708 53.9754V121.992C146.708 125.178 147.664 127.779 149.575 129.797C151.593 131.709 154.194 132.664 157.38 132.664H157.539V135.85H116.761Z" fill="url(#paint13_radial_2448_238)"/>
<path d="M781.746 161.394C785.068 161.394 787.901 161.907 790.246 162.932C792.591 163.958 794.423 165.277 795.742 166.889C797.109 168.452 797.964 170.211 798.306 172.165C798.648 174.07 798.502 175.951 797.867 177.807C797.231 179.615 796.083 181.276 794.423 182.79C792.811 184.304 790.71 185.428 788.121 186.161L797.793 197.811C799.552 199.912 800.993 201.451 802.116 202.428C803.24 203.405 804.486 203.917 805.853 203.966H806.586V205.432H798.819C797.354 205.432 796.157 205.383 795.229 205.285C794.3 205.139 793.446 204.846 792.664 204.406C791.931 203.917 791.15 203.234 790.319 202.354C789.538 201.426 788.536 200.205 787.315 198.69L777.862 186.967H771.341V199.057C771.341 200.522 771.781 201.719 772.66 202.647C773.588 203.527 774.785 203.966 776.25 203.966H776.324V205.432H757.565V203.966H757.639C759.104 203.966 760.276 203.527 761.156 202.647C762.084 201.719 762.548 200.522 762.548 199.057V167.769C762.548 166.303 762.084 165.131 761.156 164.251C760.276 163.323 759.104 162.859 757.639 162.859H757.565V161.394H781.746ZM779.987 185.501C782.088 185.501 783.822 184.939 785.19 183.816C786.558 182.692 787.584 181.3 788.267 179.639C789 177.978 789.367 176.171 789.367 174.217C789.367 172.214 789 170.382 788.267 168.721C787.584 167.06 786.558 165.668 785.19 164.544C783.822 163.421 782.088 162.859 779.987 162.859H771.341V185.501H779.987Z" fill="url(#paint14_radial_2448_238)"/>
<path d="M734.99 203.966C736.7 203.966 738.58 203.942 740.632 203.893C742.732 203.844 744.76 203.6 746.714 203.16C748.717 202.721 750.548 201.988 752.209 200.962C753.87 199.887 755.14 198.324 756.02 196.272L757.339 196.492L755.58 207.264H755.214C755.018 206.824 754.505 206.458 753.675 206.165C752.893 205.92 751.916 205.749 750.744 205.652C749.62 205.554 748.375 205.481 747.007 205.432C745.688 205.432 744.393 205.432 743.123 205.432H721.214V203.966H721.287C722.753 203.966 723.925 203.527 724.805 202.647C725.733 201.719 726.197 200.522 726.197 199.057V167.769C726.197 166.303 725.733 165.131 724.805 164.251C723.925 163.323 722.753 162.859 721.287 162.859H721.214V161.394H755.873L757.339 170.333L756.093 170.626C755.214 168.575 753.944 167.036 752.283 166.01C750.622 164.935 748.79 164.178 746.787 163.738C744.784 163.25 742.732 162.981 740.632 162.932C738.58 162.884 736.7 162.859 734.99 162.859V181.398H739.02C741.023 181.398 742.733 181.153 744.149 180.665C745.566 180.128 746.641 178.906 747.373 177.001H748.839V187.26H747.373C746.641 185.354 745.566 184.158 744.149 183.669C742.733 183.132 741.023 182.863 739.02 182.863H734.99V203.966Z" fill="url(#paint15_radial_2448_238)"/>
<path d="M703.709 160.661C705.467 160.661 706.933 160.807 708.105 161.1C709.327 161.345 710.426 161.54 711.403 161.687C712.429 161.833 713.43 161.833 714.407 161.687C715.384 161.54 716.556 161.076 717.924 160.294L718.51 159.928H718.95L719.756 173.63H718.291C717.949 171.97 717.338 170.455 716.459 169.087C715.628 167.671 714.602 166.45 713.381 165.424C712.209 164.398 710.841 163.592 709.278 163.006C707.763 162.419 706.127 162.126 704.368 162.126C701.828 162.126 699.679 162.713 697.92 163.885C696.162 165.008 694.745 166.523 693.67 168.428C692.596 170.284 691.863 172.434 691.472 174.876C691.081 177.27 690.983 179.737 691.179 182.277C691.423 184.768 691.936 187.235 692.718 189.678C693.548 192.071 694.623 194.221 695.942 196.126C697.31 197.982 698.922 199.497 700.778 200.669C702.634 201.792 704.71 202.354 707.006 202.354C708.325 202.354 709.62 202.134 710.89 201.695C712.209 201.255 713.381 200.644 714.407 199.863C715.482 199.032 716.385 198.08 717.118 197.005C717.9 195.93 718.437 194.758 718.73 193.488L720.122 193.928C719.39 196.468 718.315 198.544 716.898 200.156C715.482 201.768 713.919 203.014 712.209 203.893C710.548 204.772 708.863 205.359 707.153 205.652C705.443 205.994 703.929 206.165 702.61 206.165C699.19 206.165 696.186 205.529 693.597 204.259C691.008 202.94 688.834 201.206 687.075 199.057C685.366 196.907 684.071 194.489 683.192 191.803C682.361 189.067 681.946 186.283 681.946 183.449C681.995 180.567 682.459 177.783 683.338 175.096C684.267 172.36 685.634 169.918 687.442 167.769C689.249 165.619 691.496 163.909 694.183 162.639C696.919 161.32 700.094 160.661 703.709 160.661Z" fill="url(#paint16_radial_2448_238)"/>
<path d="M640.542 167.769C640.542 166.303 640.078 165.131 639.15 164.251C638.271 163.323 637.099 162.859 635.633 162.859H635.56V161.394H647.357L674.542 193.195V167.769C674.542 166.303 674.078 165.131 673.15 164.251C672.27 163.323 671.098 162.859 669.633 162.859H669.559V161.394H680.99V162.859H680.917C679.451 162.859 678.255 163.323 677.326 164.251C676.447 165.131 676.007 166.303 676.007 167.769V205.432H673.589L642.008 168.648V199.057C642.008 200.522 642.448 201.719 643.327 202.647C644.255 203.527 645.452 203.966 646.917 203.966H646.991V205.432H635.56V203.966H635.633C637.099 203.966 638.271 203.527 639.15 202.647C640.078 201.719 640.542 200.522 640.542 199.057V167.769Z" fill="url(#paint17_radial_2448_238)"/>
<path d="M612.984 203.966C614.694 203.966 616.575 203.942 618.626 203.893C620.727 203.844 622.754 203.6 624.708 203.16C626.711 202.721 628.543 201.988 630.204 200.962C631.865 199.887 633.135 198.324 634.014 196.272L635.333 196.492L633.574 207.264H633.208C633.013 206.824 632.5 206.458 631.669 206.165C630.888 205.92 629.911 205.749 628.738 205.652C627.615 205.554 626.369 205.481 625.001 205.432C623.682 205.432 622.388 205.432 621.118 205.432H599.209V203.966H599.282C600.747 203.966 601.92 203.527 602.799 202.647C603.727 201.719 604.191 200.522 604.191 199.057V167.769C604.191 166.303 603.727 165.131 602.799 164.251C601.92 163.323 600.747 162.859 599.282 162.859H599.209V161.394H633.868L635.333 170.333L634.087 170.626C633.208 168.575 631.938 167.036 630.277 166.01C628.616 164.935 626.784 164.178 624.781 163.738C622.779 163.25 620.727 162.981 618.626 162.932C616.575 162.884 614.694 162.859 612.984 162.859V181.398H617.014C619.017 181.398 620.727 181.153 622.144 180.665C623.56 180.128 624.635 178.906 625.368 177.001H626.833V187.26H625.368C624.635 185.354 623.56 184.158 622.144 183.669C620.727 183.132 619.017 182.863 617.014 182.863H612.984V203.966Z" fill="url(#paint18_radial_2448_238)"/>
<path d="M568.472 191.363C568.472 193.464 568.814 195.295 569.498 196.859C570.182 198.373 571.061 199.643 572.136 200.669C573.259 201.646 574.529 202.379 575.946 202.867C577.363 203.356 578.804 203.6 580.269 203.6C581.833 203.6 583.322 203.356 584.739 202.867C586.205 202.379 587.475 201.67 588.549 200.742C589.673 199.814 590.552 198.691 591.187 197.372C591.822 196.004 592.14 194.489 592.14 192.829V167.769C592.14 166.303 591.676 165.131 590.748 164.251C589.868 163.323 588.696 162.859 587.23 162.859H587.157V161.394H598.588V162.859H598.515C597.049 162.859 595.852 163.323 594.924 164.251C594.045 165.131 593.605 166.303 593.605 167.769V192.096C593.605 194.441 593.117 196.492 592.14 198.251C591.212 200.009 589.966 201.475 588.403 202.647C586.888 203.82 585.13 204.699 583.127 205.285C581.173 205.871 579.146 206.165 577.045 206.165C574.896 206.165 572.771 205.847 570.67 205.212C568.619 204.528 566.762 203.527 565.101 202.208C563.489 200.84 562.17 199.13 561.145 197.078C560.168 195.027 559.679 192.633 559.679 189.898V167.769C559.679 166.303 559.215 165.131 558.287 164.251C557.408 163.323 556.235 162.859 554.77 162.859H554.696V161.394H573.455V162.859H573.381C571.916 162.859 570.719 163.323 569.791 164.251C568.912 165.131 568.472 166.303 568.472 167.769V191.363Z" fill="url(#paint19_radial_2448_238)"/>
<path d="M532.267 203.966C533.977 203.966 535.858 203.942 537.91 203.893C540.01 203.844 542.037 203.6 543.991 203.16C545.994 202.721 547.826 201.988 549.487 200.962C551.148 199.887 552.418 198.324 553.297 196.272L554.616 196.492L552.858 207.264H552.491C552.296 206.824 551.783 206.458 550.952 206.165C550.171 205.92 549.194 205.749 548.022 205.652C546.898 205.554 545.652 205.481 544.284 205.432C542.966 205.432 541.671 205.432 540.401 205.432H518.492V203.966H518.565C520.03 203.966 521.203 203.527 522.082 202.647C523.01 201.719 523.474 200.522 523.474 199.057V167.769C523.474 166.303 523.01 165.131 522.082 164.251C521.203 163.323 520.03 162.859 518.565 162.859H518.492V161.394H537.25V162.859H537.177C535.711 162.859 534.514 163.323 533.586 164.251C532.707 165.131 532.267 166.303 532.267 167.769V203.966Z" fill="url(#paint20_radial_2448_238)"/>
<path d="M518.48 170.333L517.014 170.553C516.135 168.501 514.865 166.962 513.204 165.937C511.592 164.862 509.784 164.105 507.782 163.665C505.828 163.225 503.825 162.981 501.773 162.932C499.721 162.884 497.841 162.859 496.131 162.859V181.398H500.161C502.164 181.398 503.874 181.153 505.29 180.665C506.707 180.128 507.782 178.906 508.514 177.001H509.98V187.26H508.514C507.782 185.354 506.707 184.158 505.29 183.669C503.874 183.132 502.164 182.863 500.161 182.863H496.131V199.057C496.131 200.522 496.57 201.719 497.45 202.647C498.378 203.527 499.575 203.966 501.04 203.966H501.114V205.432H482.355V203.966H482.428C483.894 203.966 485.066 203.527 485.946 202.647C486.874 201.719 487.338 200.522 487.338 199.057V167.769C487.338 166.303 486.874 165.131 485.946 164.251C485.066 163.323 483.894 162.859 482.428 162.859H482.355V161.394H517.014L518.48 170.333Z" fill="url(#paint21_radial_2448_238)"/>
<path d="M441.684 167.769C441.684 166.303 441.22 165.131 440.292 164.251C439.413 163.323 438.24 162.859 436.775 162.859H436.701V161.394H448.499L475.684 193.195V167.769C475.684 166.303 475.22 165.131 474.292 164.251C473.412 163.323 472.24 162.859 470.774 162.859H470.701V161.394H482.132V162.859H482.059C480.593 162.859 479.396 163.323 478.468 164.251C477.589 165.131 477.149 166.303 477.149 167.769V205.432H474.731L443.15 168.648V199.057C443.15 200.522 443.589 201.719 444.469 202.647C445.397 203.527 446.594 203.966 448.059 203.966H448.132V205.432H436.701V203.966H436.775C438.24 203.966 439.413 203.527 440.292 202.647C441.22 201.719 441.684 200.522 441.684 199.057V167.769Z" fill="url(#paint22_radial_2448_238)"/>
<path d="M422.221 167.769C422.221 166.303 421.756 165.131 420.828 164.251C419.949 163.323 418.777 162.859 417.311 162.859H417.238V161.394H435.996V162.859H435.923C434.457 162.859 433.261 163.323 432.332 164.251C431.453 165.131 431.014 166.303 431.014 167.769V199.057C431.014 200.522 431.453 201.719 432.332 202.647C433.261 203.527 434.457 203.966 435.923 203.966H435.996V205.432H417.238V203.966H417.311C418.777 203.966 419.949 203.527 420.828 202.647C421.756 201.719 422.221 200.522 422.221 199.057V167.769Z" fill="url(#paint23_radial_2448_238)"/>
<defs>
<radialGradient id="paint0_radial_2448_238" cx="0" cy="0" r="1" gradientUnits="userSpaceOnUse" gradientTransform="translate(613.639 103.632) scale(611.563 102.108)">
<stop stop-color="#EECF7F"/>
<stop offset="1" stop-color="#B78E38"/>
</radialGradient>
<radialGradient id="paint1_radial_2448_238" cx="0" cy="0" r="1" gradientUnits="userSpaceOnUse" gradientTransform="translate(-6576.1 -212.95) rotate(6.78601) scale(9117.34 1743.52)">
<stop stop-color="#FFE395"/>
<stop offset="1" stop-color="#8C5B00"/>
</radialGradient>
<radialGradient id="paint2_radial_2448_238" cx="0" cy="0" r="1" gradientUnits="userSpaceOnUse" gradientTransform="translate(-5469.98 -212.95) rotate(6.67544) scale(9267.65 1743.91)">
<stop stop-color="#FFE395"/>
<stop offset="1" stop-color="#8C5B00"/>
</radialGradient>
<radialGradient id="paint3_radial_2448_238" cx="0" cy="0" r="1" gradientUnits="userSpaceOnUse" gradientTransform="translate(-6104.58 -204.446) rotate(4.81227) scale(12329 1679.75)">
<stop stop-color="#FFE395"/>
<stop offset="1" stop-color="#8C5B00"/>
</radialGradient>
<radialGradient id="paint4_radial_2448_238" cx="0" cy="0" r="1" gradientUnits="userSpaceOnUse" gradientTransform="translate(-4870.95 -204.446) rotate(4.81227) scale(12329 1679.75)">
<stop stop-color="#FFE395"/>
<stop offset="1" stop-color="#8C5B00"/>
</radialGradient>
<radialGradient id="paint5_radial_2448_238" cx="0" cy="0" r="1" gradientUnits="userSpaceOnUse" gradientTransform="translate(-2722.54 -202.754) rotate(5.9164) scale(10115 1690.22)">
<stop stop-color="#FFE395"/>
<stop offset="1" stop-color="#8C5B00"/>
</radialGradient>
<radialGradient id="paint6_radial_2448_238" cx="0" cy="0" r="1" gradientUnits="userSpaceOnUse" gradientTransform="translate(-1494.49 -212.95) rotate(5.96064) scale(10374.3 1746.32)">
<stop stop-color="#FFE395"/>
<stop offset="1" stop-color="#8C5B00"/>
</radialGradient>
<radialGradient id="paint7_radial_2448_238" cx="0" cy="0" r="1" gradientUnits="userSpaceOnUse" gradientTransform="translate(268.914 -212.95) rotate(6.29312) scale(9828.2 1745.24)">
<stop stop-color="#FFE395"/>
<stop offset="1" stop-color="#8C5B00"/>
</radialGradient>
<radialGradient id="paint8_radial_2448_238" cx="0" cy="0" r="1" gradientUnits="userSpaceOnUse" gradientTransform="translate(1543.28 -202.754) rotate(5.9164) scale(10115 1690.22)">
<stop stop-color="#FFE395"/>
<stop offset="1" stop-color="#8C5B00"/>
</radialGradient>
<radialGradient id="paint9_radial_2448_238" cx="0" cy="0" r="1" gradientUnits="userSpaceOnUse" gradientTransform="translate(4948.13 -212.95) rotate(2.60715) scale(23683.8 1754)">
<stop stop-color="#FFE395"/>
<stop offset="1" stop-color="#8C5B00"/>
</radialGradient>
<radialGradient id="paint10_radial_2448_238" cx="0" cy="0" r="1" gradientUnits="userSpaceOnUse" gradientTransform="translate(3803.37 -204.446) rotate(4.81227) scale(12329 1679.75)">
<stop stop-color="#FFE395"/>
<stop offset="1" stop-color="#8C5B00"/>
</radialGradient>
<radialGradient id="paint11_radial_2448_238" cx="0" cy="0" r="1" gradientUnits="userSpaceOnUse" gradientTransform="translate(5037.01 -204.446) rotate(4.81227) scale(12329 1679.75)">
<stop stop-color="#FFE395"/>
<stop offset="1" stop-color="#8C5B00"/>
</radialGradient>
<radialGradient id="paint12_radial_2448_238" cx="0" cy="0" r="1" gradientUnits="userSpaceOnUse" gradientTransform="translate(10971.6 -212.95) rotate(2.60715) scale(23683.8 1754)">
<stop stop-color="#FFE395"/>
<stop offset="1" stop-color="#8C5B00"/>
</radialGradient>
<radialGradient id="paint13_radial_2448_238" cx="0" cy="0" r="1" gradientUnits="userSpaceOnUse" gradientTransform="translate(4833.79 -212.95) rotate(7.91872) scale(7819.79 1739.07)">
<stop stop-color="#FFE395"/>
<stop offset="1" stop-color="#8C5B00"/>
</radialGradient>
<radialGradient id="paint14_radial_2448_238" cx="0" cy="0" r="1" gradientUnits="userSpaceOnUse" gradientTransform="translate(-4419.26 -210.696) rotate(9.2923) scale(6647.55 1726.46)">
<stop stop-color="#FFE395"/>
<stop offset="1" stop-color="#8C5B00"/>
</radialGradient>
<radialGradient id="paint15_radial_2448_238" cx="0" cy="0" r="1" gradientUnits="userSpaceOnUse" gradientTransform="translate(-4763.52 -202.281) rotate(6.60308) scale(8961.79 1668.41)">
<stop stop-color="#FFE395"/>
<stop offset="1" stop-color="#8C5B00"/>
</radialGradient>
<radialGradient id="paint16_radial_2448_238" cx="0" cy="0" r="1" gradientUnits="userSpaceOnUse" gradientTransform="translate(-3246.48 -194.109) rotate(6.91978) scale(8485.72 1654.1)">
<stop stop-color="#FFE395"/>
<stop offset="1" stop-color="#8C5B00"/>
</radialGradient>
<radialGradient id="paint17_radial_2448_238" cx="0" cy="0" r="1" gradientUnits="userSpaceOnUse" gradientTransform="translate(-1476.24 -210.696) rotate(8.62232) scale(7159.71 1729.64)">
<stop stop-color="#FFE395"/>
<stop offset="1" stop-color="#8C5B00"/>
</radialGradient>
<radialGradient id="paint18_radial_2448_238" cx="0" cy="0" r="1" gradientUnits="userSpaceOnUse" gradientTransform="translate(-623.06 -202.281) rotate(6.60308) scale(8961.79 1668.41)">
<stop stop-color="#FFE395"/>
<stop offset="1" stop-color="#8C5B00"/>
</radialGradient>
<radialGradient id="paint19_radial_2448_238" cx="0" cy="0" r="1" gradientUnits="userSpaceOnUse" gradientTransform="translate(730.591 -207.247) rotate(8.19991) scale(7402.65 1703.19)">
<stop stop-color="#FFE395"/>
<stop offset="1" stop-color="#8C5B00"/>
</radialGradient>
<radialGradient id="paint20_radial_2448_238" cx="0" cy="0" r="1" gradientUnits="userSpaceOnUse" gradientTransform="translate(2116.2 -202.281) rotate(6.60308) scale(8961.79 1668.41)">
<stop stop-color="#FFE395"/>
<stop offset="1" stop-color="#8C5B00"/>
</radialGradient>
<radialGradient id="paint21_radial_2448_238" cx="0" cy="0" r="1" gradientUnits="userSpaceOnUse" gradientTransform="translate(3342.55 -210.696) rotate(6.87518) scale(8966.82 1736.83)">
<stop stop-color="#FFE395"/>
<stop offset="1" stop-color="#8C5B00"/>
</radialGradient>
<radialGradient id="paint22_radial_2448_238" cx="0" cy="0" r="1" gradientUnits="userSpaceOnUse" gradientTransform="translate(3889.97 -210.696) rotate(8.62232) scale(7159.71 1729.64)">
<stop stop-color="#FFE395"/>
<stop offset="1" stop-color="#8C5B00"/>
</radialGradient>
<radialGradient id="paint23_radial_2448_238" cx="0" cy="0" r="1" gradientUnits="userSpaceOnUse" gradientTransform="translate(580.829 116.626) rotate(41.0042) scale(347.603 280.511)">
<stop stop-color="#FFE395"/>
<stop offset="1" stop-color="#8C5B00"/>
</radialGradient>
</defs>
</svg>
