<svg width="32" height="36" viewBox="0 0 32 36" fill="none" xmlns="http://www.w3.org/2000/svg">
<path d="M27.2197 19.2129L14.5955 31.8371C13.2106 33.222 11.3323 34 9.37381 34C7.41531 34 5.53702 33.222 4.15214 31.8371C2.76727 30.4522 1.98926 28.574 1.98926 26.6154C1.98926 24.6569 2.76727 22.7787 4.15214 21.3938L22.1047 3.44122C22.562 2.98414 23.1048 2.62161 23.7022 2.37433C24.2996 2.12705 24.9399 1.99985 25.5864 2C26.233 2.00015 26.8732 2.12765 27.4705 2.37522C28.0677 2.62278 28.6104 2.98557 29.0675 3.44286C29.5246 3.90015 29.8871 4.44299 30.1344 5.04038C30.3817 5.63778 30.5088 6.27803 30.5087 6.92458C30.5085 7.57114 30.381 8.21133 30.1335 8.80861C29.8859 9.40589 29.5231 9.94856 29.0658 10.4056L11.1001 28.3713C10.6341 28.8181 10.0111 29.0623 9.36552 29.0541C8.71992 29.0459 8.10339 28.7844 7.64879 28.3259C7.19419 27.8675 6.93792 27.2487 6.93522 26.6031C6.93252 25.9575 7.1836 25.3366 7.63435 24.8743L20.4506 12.0581M11.1149 28.3549L11.0985 28.3713" stroke="#FEDF7A" stroke-width="2.5" stroke-linecap="round" stroke-linejoin="round"/>
</svg>
