<svg width="30" height="30" viewBox="0 0 30 30" fill="none" xmlns="http://www.w3.org/2000/svg">
<path d="M15.249 28C18.2415 27.9998 21.1492 27.0426 23.5156 25.2787C25.8819 23.5148 27.5729 21.044 28.323 18.2543M15.249 28C12.2565 27.9998 9.34883 27.0426 6.98248 25.2787C4.61613 23.5148 2.92515 21.044 2.17503 18.2543M15.249 28C18.9765 28 21.999 22.1789 21.999 15C21.999 7.82111 18.9765 2 15.249 2M15.249 28C11.5215 28 8.49902 22.1789 8.49902 15C8.49902 7.82111 11.5215 2 15.249 2M28.323 18.2543C28.6005 17.2143 28.749 16.1238 28.749 15C28.7527 12.7642 28.1548 10.5655 27.0135 8.61845M28.323 18.2543C24.3228 20.3898 19.8228 21.5069 15.249 21.5C10.506 21.5 6.04952 20.3228 2.17503 18.2543M2.17503 18.2543C1.89115 17.1912 1.74801 16.0977 1.74903 15C1.74903 12.6817 2.37903 10.5034 3.48453 8.61845M15.249 2C17.6434 1.99904 19.9949 2.61152 22.0623 3.77459C24.1297 4.93767 25.8385 6.60946 27.0135 8.61845M15.249 2C12.8547 1.99904 10.5031 2.61152 8.43574 3.77459C6.36833 4.93767 4.65949 6.60946 3.48453 8.61845M27.0135 8.61845C23.7475 11.3426 19.5698 12.8393 15.249 12.8333C10.752 12.8333 6.63902 11.2444 3.48453 8.61845" stroke="#FEEA9A" stroke-width="2.5" stroke-linecap="round" stroke-linejoin="round"/>
</svg>
