<svg width="69" height="69" viewBox="0 0 69 69" fill="none" xmlns="http://www.w3.org/2000/svg">
<path d="M66.6363 33.1004C66.6335 30.2857 65.8336 27.5292 64.3294 25.1502C62.8251 22.7711 60.6779 20.8666 58.1363 19.6571V19.2879C58.1338 16.5499 57.25 13.8854 55.6157 11.6887C53.9813 9.49195 51.6832 7.8797 49.0614 7.09047C46.4396 6.30125 43.6334 6.37699 41.058 7.30647C38.4826 8.23596 36.2748 9.96982 34.7613 12.2515C33.2478 9.96982 31.04 8.23596 28.4646 7.30647C25.8891 6.37699 23.0829 6.30125 20.4611 7.09047C17.8393 7.8797 15.5412 9.49195 13.9069 11.6887C12.2725 13.8854 11.3887 16.5499 11.3863 19.2879V19.6571C8.84248 20.8633 6.6932 22.7666 5.1882 25.1458C3.6832 27.525 2.88428 30.2825 2.88428 33.0977C2.88428 35.913 3.6832 38.6705 5.1882 41.0497C6.6932 43.4289 8.84248 45.3322 11.3863 46.5384V46.9129C11.3887 49.6509 12.2725 52.3154 13.9069 54.5121C15.5412 56.7089 17.8393 58.3211 20.4611 59.1103C23.0829 59.8996 25.8891 59.8238 28.4646 58.8943C31.04 57.9648 33.2478 56.231 34.7613 53.9493C36.2748 56.231 38.4826 57.9648 41.058 58.8943C43.6334 59.8238 46.4396 59.8996 49.0614 59.1103C51.6832 58.3211 53.9813 56.7089 55.6157 54.5121C57.25 52.3154 58.1338 49.6509 58.1363 46.9129V46.5384C60.6775 45.3298 62.8245 43.4263 64.3288 41.0481C65.8331 38.6699 66.6331 35.9144 66.6363 33.1004ZM24.1363 55.4129C22.0403 55.4126 20.0184 54.6379 18.4589 53.2377C16.8993 51.8375 15.912 49.9104 15.6867 47.8267C16.3739 47.9247 17.0671 47.9744 17.7613 47.9754H19.8863C20.4499 47.9754 20.9904 47.7515 21.3889 47.353C21.7874 46.9545 22.0113 46.414 22.0113 45.8504C22.0113 45.2868 21.7874 44.7463 21.3889 44.3478C20.9904 43.9493 20.4499 43.7254 19.8863 43.7254H17.7613C15.2526 43.7283 12.8238 42.8435 10.9049 41.2276C8.98599 39.6117 7.70075 37.3689 7.27673 34.8963C6.8527 32.4237 7.31725 29.8808 8.58811 27.7179C9.85898 25.555 11.8542 23.9115 14.2205 23.0784C14.6345 22.9318 14.993 22.6605 15.2465 22.3018C15.5 21.9432 15.6362 21.5148 15.6363 21.0756V19.2879C15.6363 17.0336 16.5318 14.8716 18.1259 13.2775C19.7199 11.6834 21.8819 10.7879 24.1363 10.7879C26.3906 10.7879 28.5526 11.6834 30.1467 13.2775C31.7407 14.8716 32.6363 17.0336 32.6363 19.2879V37.4195C30.3028 35.3207 27.2747 34.1606 24.1363 34.1629C23.5727 34.1629 23.0322 34.3868 22.6337 34.7853C22.2352 35.1838 22.0113 35.7243 22.0113 36.2879C22.0113 36.8515 22.2352 37.392 22.6337 37.7905C23.0322 38.189 23.5727 38.4129 24.1363 38.4129C26.3906 38.4129 28.5526 39.3084 30.1467 40.9025C31.7407 42.4966 32.6363 44.6586 32.6363 46.9129C32.6363 49.1672 31.7407 51.3293 30.1467 52.9233C28.5526 54.5174 26.3906 55.4129 24.1363 55.4129ZM51.7613 43.7254H49.6363C49.0727 43.7254 48.5322 43.9493 48.1337 44.3478C47.7352 44.7463 47.5113 45.2868 47.5113 45.8504C47.5113 46.414 47.7352 46.9545 48.1337 47.353C48.5322 47.7515 49.0727 47.9754 49.6363 47.9754H51.7613C52.4554 47.9744 53.1486 47.9247 53.8358 47.8267C53.6593 49.4594 53.0135 51.006 51.9767 52.2795C50.9399 53.553 49.5563 54.4989 47.9933 55.0028C46.4303 55.5068 44.7548 55.5471 43.1693 55.119C41.5839 54.6909 40.1564 53.8127 39.0594 52.5906C37.9625 51.3685 37.243 49.8548 36.9881 48.2324C36.7332 46.6101 36.9536 44.9487 37.6229 43.449C38.2921 41.9493 39.3815 40.6756 40.7592 39.7819C42.1369 38.8882 43.744 38.4127 45.3863 38.4129C45.9499 38.4129 46.4904 38.189 46.8889 37.7905C47.2874 37.392 47.5113 36.8515 47.5113 36.2879C47.5113 35.7243 47.2874 35.1838 46.8889 34.7853C46.4904 34.3868 45.9499 34.1629 45.3863 34.1629C42.2478 34.1606 39.2197 35.3207 36.8863 37.4195V19.2879C36.8863 17.0336 37.7818 14.8716 39.3759 13.2775C40.9699 11.6834 43.1319 10.7879 45.3863 10.7879C47.6406 10.7879 49.8026 11.6834 51.3967 13.2775C52.9907 14.8716 53.8863 17.0336 53.8863 19.2879V21.0756C53.8863 21.5148 54.0225 21.9432 54.276 22.3018C54.5296 22.6605 54.888 22.9318 55.3021 23.0784C57.6684 23.9115 59.6636 25.555 60.9344 27.7179C62.2053 29.8808 62.6698 32.4237 62.2458 34.8963C61.8218 37.3689 60.5365 39.6117 58.6176 41.2276C56.6987 42.8435 54.2699 43.7283 51.7613 43.7254ZM56.0113 29.9129C56.0113 30.4765 55.7874 31.017 55.3889 31.4155C54.9904 31.814 54.4499 32.0379 53.8863 32.0379H52.8238C50.2876 32.0379 47.8554 31.0304 46.0621 29.2371C44.2687 27.4438 43.2613 25.0115 43.2613 22.4754V21.4129C43.2613 20.8493 43.4852 20.3088 43.8837 19.9103C44.2822 19.5118 44.8227 19.2879 45.3863 19.2879C45.9499 19.2879 46.4904 19.5118 46.8889 19.9103C47.2874 20.3088 47.5113 20.8493 47.5113 21.4129V22.4754C47.5113 23.8844 48.071 25.2356 49.0673 26.2319C50.0636 27.2282 51.4148 27.7879 52.8238 27.7879H53.8863C54.4499 27.7879 54.9904 28.0118 55.3889 28.4103C55.7874 28.8088 56.0113 29.3493 56.0113 29.9129ZM16.6988 32.0379H15.6363C15.0727 32.0379 14.5322 31.814 14.1337 31.4155C13.7352 31.017 13.5113 30.4765 13.5113 29.9129C13.5113 29.3493 13.7352 28.8088 14.1337 28.4103C14.5322 28.0118 15.0727 27.7879 15.6363 27.7879H16.6988C18.1077 27.7879 19.459 27.2282 20.4553 26.2319C21.4516 25.2356 22.0113 23.8844 22.0113 22.4754V21.4129C22.0113 20.8493 22.2352 20.3088 22.6337 19.9103C23.0322 19.5118 23.5727 19.2879 24.1363 19.2879C24.6999 19.2879 25.2404 19.5118 25.6389 19.9103C26.0374 20.3088 26.2613 20.8493 26.2613 21.4129V22.4754C26.2613 25.0115 25.2538 27.4438 23.4605 29.2371C21.6672 31.0304 19.2349 32.0379 16.6988 32.0379Z" fill="#FEDF7A"/>
</svg>
