<svg width="63" height="40" viewBox="0 0 63 40" fill="none" xmlns="http://www.w3.org/2000/svg">
<path d="M33.8533 33.5239L17.8533 17.5239L11.3771 24.762L26.9962 40.0001L28.139 34.2858L33.8533 33.5239Z" fill="url(#paint0_linear_2133_10623)"/>
<path d="M0.711243 33.5239L16.7112 17.5239L23.1874 24.762L7.56839 40.0001L6.42553 34.2858L0.711243 33.5239Z" fill="url(#paint1_linear_2133_10623)"/>
<rect x="2.98468" y="0.75" width="28.9762" height="28.9762" rx="14.4881" fill="url(#paint2_linear_2133_10623)"/>
<rect x="2.98468" y="0.75" width="28.9762" height="28.9762" rx="14.4881" stroke="url(#paint3_linear_2133_10623)" stroke-width="1.5"/>
<path d="M17.7112 3L20.1792 6.59484L24.1989 4.90496L24.3316 9.26342L28.6268 10.015L26.3821 13.7533L29.5891 16.7078L25.6796 18.639L26.7802 22.8583L22.4473 22.3694L21.092 26.5139L17.7112 23.76L14.3305 26.5139L12.9752 22.3694L8.64225 22.8583L9.74287 18.639L5.83339 16.7078L9.04041 13.7533L6.79566 10.015L11.0909 9.26342L11.2236 4.90496L15.2433 6.59484L17.7112 3Z" fill="url(#paint4_linear_2133_10623)" fill-opacity="0.54"/>
<path d="M24.983 19.9695H23.1177V15.4502L22.5262 19.9695H21.2827L20.6609 15.3896V19.9695H18.7955V10.5215H21.4646L21.8741 14.237L22.3139 10.5215H24.983V19.9695Z" fill="black" fill-opacity="0.64"/>
<path d="M18.0406 18.0436C18.0406 18.7412 17.9546 19.2214 17.7828 19.4843C17.5907 19.7775 17.2115 19.9443 16.6454 19.9848C16.4735 19.9949 16.2662 19.9999 16.0236 19.9999C15.9225 19.9999 15.7658 19.9999 15.5535 19.9999C15.3512 19.9999 15.1996 19.9999 15.0985 19.9999C14.4818 19.9999 14.0521 19.8483 13.8094 19.545C13.5769 19.2417 13.4606 18.7412 13.4606 18.0436V12.4476C13.4606 11.75 13.5516 11.2647 13.7336 10.9917C13.9257 10.7086 14.2998 10.5468 14.8558 10.5064C15.0378 10.4862 15.2451 10.4761 15.4776 10.4761C15.5888 10.4761 15.7455 10.4811 15.9478 10.4912C16.1601 10.4912 16.3117 10.4912 16.4027 10.4912C17.0194 10.4912 17.4441 10.6429 17.6766 10.9462C17.9193 11.2394 18.0406 11.7399 18.0406 12.4476V18.0436ZM15.9932 12.5689C15.9932 12.2858 15.9174 12.1443 15.7658 12.1443C15.5939 12.1443 15.508 12.2858 15.508 12.5689C15.508 12.6093 15.508 12.6599 15.508 12.7206C15.5181 12.7711 15.5231 12.8065 15.5231 12.8267V17.6493C15.5231 17.6695 15.5181 17.71 15.508 17.7706C15.508 17.8313 15.508 17.8768 15.508 17.9071C15.508 18.2003 15.5838 18.3469 15.7354 18.3469C15.9073 18.3469 15.9932 18.2003 15.9932 17.9071C15.9932 17.8768 15.9932 17.8313 15.9932 17.7706C15.9932 17.71 15.9932 17.6695 15.9932 17.6493V12.8267C15.9932 12.8166 15.9932 12.7812 15.9932 12.7206C15.9932 12.6599 15.9932 12.6093 15.9932 12.5689Z" fill="black" fill-opacity="0.64"/>
<path d="M12.7378 19.9695H10.6754V12.1442H9.96259V10.5215H12.7378V19.9695Z" fill="black" fill-opacity="0.64"/>
<path d="M49.1024 8.09619H50.6592L52.7441 13.1849H52.8264L54.9113 8.09619H56.4681V15.1189H55.2474V10.2942H55.1822L53.2413 15.0984H52.3292L50.3883 10.2839H50.3231V15.1189H49.1024V8.09619Z" fill="#FFE395"/>
<path d="M45.1879 15.2525C44.6232 15.2525 44.1386 15.1096 43.7339 14.8239C43.3316 14.5358 43.0218 14.1209 42.8046 13.5791C42.5897 13.035 42.4823 12.3801 42.4823 11.6142C42.4846 10.8484 42.5932 10.1969 42.8081 9.65967C43.0252 9.12017 43.335 8.70868 43.7374 8.42521C44.142 8.14174 44.6255 8 45.1879 8C45.7503 8 46.2338 8.14174 46.6384 8.42521C47.043 8.70868 47.3528 9.12017 47.5677 9.65967C47.7849 10.1992 47.8935 10.8507 47.8935 11.6142C47.8935 12.3824 47.7849 13.0385 47.5677 13.5825C47.3528 14.1243 47.043 14.5381 46.6384 14.8239C46.2361 15.1096 45.7526 15.2525 45.1879 15.2525ZM45.1879 14.1792C45.6268 14.1792 45.9732 13.9632 46.2269 13.5311C46.483 13.0968 46.611 12.4578 46.611 11.6142C46.611 11.0565 46.5527 10.5878 46.4361 10.2083C46.3195 9.82884 46.1549 9.54309 45.9423 9.35106C45.7297 9.15674 45.4782 9.05959 45.1879 9.05959C44.7512 9.05959 44.406 9.27676 44.1523 9.71111C43.8985 10.1432 43.7705 10.7776 43.7682 11.6142C43.7659 12.1743 43.8219 12.6453 43.9363 13.027C44.0528 13.4088 44.2174 13.6968 44.43 13.8912C44.6427 14.0832 44.8953 14.1792 45.1879 14.1792Z" fill="#FFE395"/>
<path d="M40.8092 8.09619V15.1189H39.537V9.33409H39.4959L37.8533 10.3834V9.2175L39.5988 8.09619H40.8092Z" fill="#FFE395"/>
<path d="M57.7603 31.8938V24.8711H60.4487C60.9562 24.8711 61.378 24.9511 61.7141 25.1111C62.0524 25.2689 62.305 25.4849 62.4719 25.7592C62.6411 26.0336 62.7257 26.3445 62.7257 26.6919C62.7257 26.9777 62.6708 27.2223 62.5611 27.4258C62.4513 27.6269 62.3039 27.7904 62.1187 27.9161C61.9335 28.0418 61.7267 28.1321 61.498 28.187V28.2556C61.7472 28.2693 61.9861 28.3459 62.2147 28.4853C62.4456 28.6225 62.6342 28.8168 62.7805 29.0683C62.9268 29.3197 63 29.6238 63 29.9804C63 30.3439 62.912 30.6708 62.736 30.9611C62.5599 31.2492 62.2947 31.4766 61.9404 31.6435C61.5861 31.8104 61.1403 31.8938 60.603 31.8938H57.7603ZM59.0325 30.8308H60.4007C60.8625 30.8308 61.1951 30.7428 61.3986 30.5668C61.6043 30.3885 61.7072 30.1599 61.7072 29.881C61.7072 29.6729 61.6558 29.4855 61.5529 29.3186C61.45 29.1494 61.3037 29.0168 61.114 28.9208C60.9242 28.8225 60.6979 28.7734 60.435 28.7734H59.0325V30.8308ZM59.0325 27.8578H60.291C60.5105 27.8578 60.7082 27.8178 60.8842 27.7378C61.0603 27.6555 61.1986 27.5401 61.2992 27.3915C61.402 27.2406 61.4535 27.0623 61.4535 26.8565C61.4535 26.5845 61.3574 26.3605 61.1654 26.1844C60.9757 26.0084 60.6933 25.9204 60.3184 25.9204H59.0325V27.8578Z" fill="#FFE395"/>
<path d="M55.1055 24.8711H56.3777V29.4592C56.3777 29.9621 56.2589 30.4045 56.0211 30.7863C55.7857 31.168 55.4542 31.4664 55.0267 31.6812C54.5992 31.8938 54.0997 32.0001 53.5281 32.0001C52.9543 32.0001 52.4537 31.8938 52.0262 31.6812C51.5987 31.4664 51.2672 31.168 51.0317 30.7863C50.7963 30.4045 50.6785 29.9621 50.6785 29.4592V24.8711H51.9507V29.3529C51.9507 29.6455 52.0147 29.9061 52.1428 30.1347C52.2731 30.3633 52.456 30.5428 52.6914 30.6731C52.9269 30.8011 53.2058 30.8651 53.5281 30.8651C53.8505 30.8651 54.1294 30.8011 54.3648 30.6731C54.6026 30.5428 54.7855 30.3633 54.9135 30.1347C55.0415 29.9061 55.1055 29.6455 55.1055 29.3529V24.8711Z" fill="#FFE395"/>
<path d="M45.2093 31.8938V24.8711H46.4815V30.8274H49.5746V31.8938H45.2093Z" fill="#FFE395"/>
<path d="M44.0429 27.2404H42.7604C42.7238 27.0301 42.6564 26.8438 42.5581 26.6815C42.4598 26.5169 42.3375 26.3774 42.1912 26.2631C42.0449 26.1488 41.878 26.0631 41.6905 26.0059C41.5054 25.9465 41.3053 25.9168 41.0904 25.9168C40.7087 25.9168 40.3703 26.0128 40.0754 26.2048C39.7805 26.3946 39.5496 26.6735 39.3827 27.0415C39.2158 27.4073 39.1324 27.8542 39.1324 28.3823C39.1324 28.9195 39.2158 29.3722 39.3827 29.7402C39.5519 30.106 39.7828 30.3826 40.0754 30.57C40.3703 30.7552 40.7075 30.8478 41.087 30.8478C41.2973 30.8478 41.4939 30.8204 41.6768 30.7655C41.862 30.7084 42.0277 30.6249 42.174 30.5152C42.3226 30.4054 42.4472 30.2706 42.5478 30.1105C42.6507 29.9505 42.7216 29.7676 42.7604 29.5619L44.0429 29.5688C43.9949 29.9025 43.8909 30.2157 43.7309 30.5083C43.5731 30.8009 43.3662 31.0593 43.1102 31.2833C42.8542 31.505 42.5547 31.6788 42.2118 31.8045C41.8688 31.928 41.4882 31.9897 41.0699 31.9897C40.4526 31.9897 39.9017 31.8468 39.417 31.561C38.9324 31.2753 38.5506 30.8627 38.2717 30.3232C37.9928 29.7836 37.8533 29.1367 37.8533 28.3823C37.8533 27.6256 37.9939 26.9787 38.2751 26.4414C38.5563 25.9019 38.9392 25.4893 39.4239 25.2035C39.9085 24.9178 40.4572 24.7749 41.0699 24.7749C41.4608 24.7749 41.8243 24.8298 42.1603 24.9395C42.4964 25.0492 42.7959 25.2104 43.0588 25.423C43.3217 25.6333 43.5377 25.8916 43.7069 26.198C43.8783 26.502 43.9903 26.8495 44.0429 27.2404Z" fill="#FFE395"/>
<path d="M55.2903 23.5779L53.3083 16.5552H54.6765L55.9418 21.7159H56.007L57.3581 16.5552H58.6028L59.9573 21.7194H60.0191L61.2844 16.5552H62.6526L60.6706 23.5779H59.4155L58.0096 18.6503H57.9547L56.5454 23.5779H55.2903Z" fill="#FFE395"/>
<path d="M47.9469 23.5779V16.5552H52.5145V17.6216H49.2191V19.5282H52.2779V20.5946H49.2191V22.5115H52.5419V23.5779H47.9469Z" fill="#FFE395"/>
<path d="M46.5694 16.5552V23.5779H45.2972V16.5552H46.5694Z" fill="#FFE395"/>
<path d="M39.249 16.5552L41.0767 22.0828H41.1487L42.973 16.5552H44.3721L41.8963 23.5779H40.3257L37.8533 16.5552H39.249Z" fill="#FFE395"/>
<defs>
<linearGradient id="paint0_linear_2133_10623" x1="32.3295" y1="37.7144" x2="17.8533" y2="28.762" gradientUnits="userSpaceOnUse">
<stop stop-color="#B48B34"/>
<stop offset="0.5" stop-color="#E8C776"/>
<stop offset="0.856331" stop-color="#A67921"/>
</linearGradient>
<linearGradient id="paint1_linear_2133_10623" x1="2.23505" y1="37.7144" x2="16.7112" y2="28.762" gradientUnits="userSpaceOnUse">
<stop stop-color="#B48B34"/>
<stop offset="0.5" stop-color="#E8C776"/>
<stop offset="0.856331" stop-color="#A67921"/>
</linearGradient>
<linearGradient id="paint2_linear_2133_10623" x1="2.23468" y1="15.2381" x2="32.7109" y2="15.2381" gradientUnits="userSpaceOnUse">
<stop stop-color="#B48B34"/>
<stop offset="0.5" stop-color="#E8C776"/>
<stop offset="1" stop-color="#A67921"/>
</linearGradient>
<linearGradient id="paint3_linear_2133_10623" x1="-0.640432" y1="48.1633" x2="39.9606" y2="43.7239" gradientUnits="userSpaceOnUse">
<stop stop-color="#7A5018"/>
<stop offset="1" stop-color="#FEEA9A"/>
</linearGradient>
<linearGradient id="paint4_linear_2133_10623" x1="21.4612" y1="3" x2="7.96124" y2="28.875" gradientUnits="userSpaceOnUse">
<stop stop-color="#8C5E1C"/>
<stop offset="1" stop-color="#261A08"/>
</linearGradient>
</defs>
</svg>
