<svg width="8" height="7" viewBox="0 0 8 7" fill="none" xmlns="http://www.w3.org/2000/svg">
<path d="M2.62638 3.37295C2.62638 2.75778 3.12479 2.25896 3.73978 2.25896C4.35477 2.25896 4.85345 2.75778 4.85345 3.37295C4.85345 3.98812 4.35477 4.48694 3.73978 4.48694C3.12479 4.48694 2.62638 3.98812 2.62638 3.37295ZM2.02436 3.37295C2.02436 4.32066 2.79235 5.08887 3.73978 5.08887C4.68722 5.08887 5.45521 4.32066 5.45521 3.37295C5.45521 2.42524 4.68722 1.65703 3.73978 1.65703C2.79235 1.65703 2.02436 2.42524 2.02436 3.37295ZM5.12223 1.58899C5.1222 1.6683 5.14568 1.74584 5.18971 1.8118C5.23373 1.87777 5.29632 1.92919 5.36956 1.95957C5.4428 1.98995 5.5234 1.99792 5.60117 1.98248C5.67895 1.96704 5.75039 1.92888 5.80648 1.87282C5.86257 1.81676 5.90078 1.74532 5.91628 1.66754C5.93178 1.58976 5.92387 1.50913 5.89356 1.43584C5.86324 1.36256 5.81189 1.29991 5.74598 1.25582C5.68007 1.21173 5.60257 1.18818 5.52328 1.18815H5.52312C5.41684 1.1882 5.31493 1.23044 5.23976 1.3056C5.1646 1.38075 5.12233 1.48268 5.12223 1.58899V1.58899ZM2.39013 6.09301C2.06442 6.07818 1.88739 6.02391 1.76974 5.97806C1.61377 5.91732 1.50248 5.84498 1.38547 5.7281C1.26847 5.61122 1.19604 5.50001 1.13559 5.34399C1.08972 5.22636 1.03547 5.04923 1.02067 4.72343C1.00447 4.37118 1.00124 4.26537 1.00124 3.37298C1.00124 2.48058 1.00474 2.37507 1.02067 2.02253C1.0355 1.69673 1.09015 1.51994 1.13559 1.40196C1.19631 1.24594 1.26863 1.13463 1.38547 1.01759C1.50232 0.900547 1.6135 0.828099 1.76974 0.767627C1.88733 0.721752 2.06442 0.667483 2.39013 0.652673C2.74227 0.636472 2.84805 0.633237 3.73978 0.633237C4.63152 0.633237 4.73741 0.636739 5.08984 0.652673C5.41555 0.66751 5.59229 0.72218 5.71023 0.767627C5.8662 0.828099 5.97749 0.900707 6.0945 1.01759C6.2115 1.13447 6.28366 1.24594 6.34438 1.40196C6.39024 1.51959 6.4445 1.69673 6.4593 2.02253C6.4755 2.37507 6.47873 2.48058 6.47873 3.37298C6.47873 4.26537 6.4755 4.37089 6.4593 4.72343C6.44447 5.04923 6.38995 5.22631 6.34438 5.34399C6.28366 5.50001 6.21134 5.61133 6.0945 5.7281C5.97765 5.84487 5.8662 5.91732 5.71023 5.97806C5.59264 6.02393 5.41555 6.0782 5.08984 6.09301C4.7377 6.10921 4.63192 6.11245 3.73978 6.11245C2.84765 6.11245 2.74216 6.10921 2.39013 6.09301V6.09301ZM2.36247 0.0514873C2.00682 0.0676879 1.76381 0.124096 1.55158 0.206703C1.33178 0.29201 1.14572 0.406456 0.959784 0.592148C0.773852 0.777839 0.659732 0.964253 0.57445 1.18411C0.491867 1.39654 0.435475 1.63949 0.419279 1.99523C0.402816 2.35154 0.399048 2.46545 0.399048 3.37295C0.399048 4.28045 0.402816 4.39436 0.419279 4.75067C0.435475 5.10644 0.491867 5.34937 0.57445 5.56179C0.659732 5.78151 0.773878 5.96814 0.959784 6.15375C1.14569 6.33936 1.33178 6.45365 1.55158 6.5392C1.76421 6.62181 2.00682 6.67821 2.36247 6.69441C2.71886 6.71061 2.83255 6.71465 3.73978 6.71465C4.64702 6.71465 4.7609 6.71088 5.1171 6.69441C5.47277 6.67821 5.71563 6.62181 5.92799 6.5392C6.14765 6.45365 6.33385 6.33944 6.51978 6.15375C6.70572 5.96806 6.8196 5.78151 6.90512 5.56179C6.9877 5.34937 7.04436 5.10641 7.06029 4.75067C7.07648 4.39409 7.08025 4.28045 7.08025 3.37295C7.08025 2.46545 7.07648 2.35154 7.06029 1.99523C7.04409 1.63946 6.9877 1.3964 6.90512 1.18411C6.8196 0.964386 6.70542 0.778133 6.51978 0.592148C6.33415 0.406162 6.14765 0.29201 5.92826 0.206703C5.71563 0.124096 5.47274 0.0674206 5.11737 0.0514873C4.76117 0.0352868 4.64729 0.03125 3.74005 0.03125C2.83281 0.03125 2.71886 0.0350194 2.36247 0.0514873Z" fill="#DDA74D"/>
<path d="M2.62638 3.37295C2.62638 2.75778 3.12479 2.25896 3.73978 2.25896C4.35477 2.25896 4.85345 2.75778 4.85345 3.37295C4.85345 3.98812 4.35477 4.48694 3.73978 4.48694C3.12479 4.48694 2.62638 3.98812 2.62638 3.37295ZM2.02436 3.37295C2.02436 4.32066 2.79235 5.08887 3.73978 5.08887C4.68722 5.08887 5.45521 4.32066 5.45521 3.37295C5.45521 2.42524 4.68722 1.65703 3.73978 1.65703C2.79235 1.65703 2.02436 2.42524 2.02436 3.37295ZM5.12223 1.58899C5.1222 1.6683 5.14568 1.74584 5.18971 1.8118C5.23373 1.87777 5.29632 1.92919 5.36956 1.95957C5.4428 1.98995 5.5234 1.99792 5.60117 1.98248C5.67895 1.96704 5.75039 1.92888 5.80648 1.87282C5.86257 1.81676 5.90078 1.74532 5.91628 1.66754C5.93178 1.58976 5.92387 1.50913 5.89356 1.43584C5.86324 1.36256 5.81189 1.29991 5.74598 1.25582C5.68007 1.21173 5.60257 1.18818 5.52328 1.18815H5.52312C5.41684 1.1882 5.31493 1.23044 5.23976 1.3056C5.1646 1.38075 5.12233 1.48268 5.12223 1.58899V1.58899ZM2.39013 6.09301C2.06442 6.07818 1.88739 6.02391 1.76974 5.97806C1.61377 5.91732 1.50248 5.84498 1.38547 5.7281C1.26847 5.61122 1.19604 5.50001 1.13559 5.34399C1.08972 5.22636 1.03547 5.04923 1.02067 4.72343C1.00447 4.37118 1.00124 4.26537 1.00124 3.37298C1.00124 2.48058 1.00474 2.37507 1.02067 2.02253C1.0355 1.69673 1.09015 1.51994 1.13559 1.40196C1.19631 1.24594 1.26863 1.13463 1.38547 1.01759C1.50232 0.900547 1.6135 0.828099 1.76974 0.767627C1.88733 0.721752 2.06442 0.667483 2.39013 0.652673C2.74227 0.636472 2.84805 0.633237 3.73978 0.633237C4.63152 0.633237 4.73741 0.636739 5.08984 0.652673C5.41555 0.66751 5.59229 0.72218 5.71023 0.767627C5.8662 0.828099 5.97749 0.900707 6.0945 1.01759C6.2115 1.13447 6.28366 1.24594 6.34438 1.40196C6.39024 1.51959 6.4445 1.69673 6.4593 2.02253C6.4755 2.37507 6.47873 2.48058 6.47873 3.37298C6.47873 4.26537 6.4755 4.37089 6.4593 4.72343C6.44447 5.04923 6.38995 5.22631 6.34438 5.34399C6.28366 5.50001 6.21134 5.61133 6.0945 5.7281C5.97765 5.84487 5.8662 5.91732 5.71023 5.97806C5.59264 6.02393 5.41555 6.0782 5.08984 6.09301C4.7377 6.10921 4.63192 6.11245 3.73978 6.11245C2.84765 6.11245 2.74216 6.10921 2.39013 6.09301V6.09301ZM2.36247 0.0514873C2.00682 0.0676879 1.76381 0.124096 1.55158 0.206703C1.33178 0.29201 1.14572 0.406456 0.959784 0.592148C0.773852 0.777839 0.659732 0.964253 0.57445 1.18411C0.491867 1.39654 0.435475 1.63949 0.419279 1.99523C0.402816 2.35154 0.399048 2.46545 0.399048 3.37295C0.399048 4.28045 0.402816 4.39436 0.419279 4.75067C0.435475 5.10644 0.491867 5.34937 0.57445 5.56179C0.659732 5.78151 0.773878 5.96814 0.959784 6.15375C1.14569 6.33936 1.33178 6.45365 1.55158 6.5392C1.76421 6.62181 2.00682 6.67821 2.36247 6.69441C2.71886 6.71061 2.83255 6.71465 3.73978 6.71465C4.64702 6.71465 4.7609 6.71088 5.1171 6.69441C5.47277 6.67821 5.71563 6.62181 5.92799 6.5392C6.14765 6.45365 6.33385 6.33944 6.51978 6.15375C6.70572 5.96806 6.8196 5.78151 6.90512 5.56179C6.9877 5.34937 7.04436 5.10641 7.06029 4.75067C7.07648 4.39409 7.08025 4.28045 7.08025 3.37295C7.08025 2.46545 7.07648 2.35154 7.06029 1.99523C7.04409 1.63946 6.9877 1.3964 6.90512 1.18411C6.8196 0.964386 6.70542 0.778133 6.51978 0.592148C6.33415 0.406162 6.14765 0.29201 5.92826 0.206703C5.71563 0.124096 5.47274 0.0674206 5.11737 0.0514873C4.76117 0.0352868 4.64729 0.03125 3.74005 0.03125C2.83281 0.03125 2.71886 0.0350194 2.36247 0.0514873Z" fill="#DDA74D"/>
</svg>
