<svg width="94" height="40" viewBox="0 0 94 40" fill="none" xmlns="http://www.w3.org/2000/svg">
<path d="M33.1429 33.5239L17.1425 17.5239L10.6662 24.762L26.2856 40.0001L27.4285 34.2858L33.1429 33.5239Z" fill="url(#paint0_linear_2133_10564)"/>
<path d="M0 33.5239L16.0004 17.5239L22.4767 24.762L6.8573 40.0001L5.71442 34.2858L0 33.5239Z" fill="url(#paint1_linear_2133_10564)"/>
<rect x="2.2735" y="0.75" width="28.9769" height="28.9762" rx="14.4881" fill="url(#paint2_linear_2133_10564)"/>
<rect x="2.2735" y="0.75" width="28.9769" height="28.9762" rx="14.4881" stroke="url(#paint3_linear_2133_10564)" stroke-width="1.5"/>
<path d="M17.0001 3L19.468 6.59484L23.4878 4.90496L23.6204 9.26342L27.9156 10.015L25.6709 13.7533L28.8779 16.7078L24.9684 18.639L26.0691 22.8583L21.7361 22.3694L20.3809 26.5139L17.0001 23.76L13.6193 26.5139L12.264 22.3694L7.93107 22.8583L9.03169 18.639L5.1222 16.7078L8.32923 13.7533L6.08448 10.015L10.3797 9.26342L10.5124 4.90496L14.5321 6.59484L17.0001 3Z" fill="url(#paint4_linear_2133_10564)" fill-opacity="0.54"/>
<path d="M16.762 7.23828L18.878 12.3258L24.3704 12.7661L20.1858 16.3507L21.4642 21.7104L16.762 18.8383L12.0597 21.7104L13.3382 16.3507L9.15351 12.7661L14.6459 12.3258L16.762 7.23828Z" fill="black" fill-opacity="0.63"/>
<path d="M65.404 35.9082V29.2393H66.6121V32.0625H69.7024V29.2393H70.9137V35.9082H69.7024V33.0752H66.6121V35.9082H65.404Z" fill="#FFE395"/>
<path d="M59.0581 30.252V29.2393H64.379V30.252H62.3177V35.9082H61.1194V30.252H59.0581Z" fill="#FFE395"/>
<path d="M58.0351 29.2393V35.9082H56.9605L53.8181 31.3656H53.7628V35.9082H52.5547V29.2393H53.6358L56.7749 33.7851H56.8335V29.2393H58.0351Z" fill="#FFE395"/>
<path d="M51.4116 32.5741C51.4116 33.2927 51.277 33.9081 51.0078 34.4204C50.7408 34.9306 50.3761 35.3214 49.9137 35.5927C49.4534 35.8641 48.9313 35.9998 48.3474 35.9998C47.7634 35.9998 47.2402 35.8641 46.7778 35.5927C46.3176 35.3192 45.9529 34.9274 45.6837 34.4172C45.4167 33.9049 45.2831 33.2905 45.2831 32.5741C45.2831 31.8555 45.4167 31.2412 45.6837 30.731C45.9529 30.2187 46.3176 29.8268 46.7778 29.5555C47.2402 29.2841 47.7634 29.1484 48.3474 29.1484C48.9313 29.1484 49.4534 29.2841 49.9137 29.5555C50.3761 29.8268 50.7408 30.2187 51.0078 30.731C51.277 31.2412 51.4116 31.8555 51.4116 32.5741ZM50.197 32.5741C50.197 32.0683 50.1177 31.6417 49.9592 31.2944C49.8029 30.9449 49.5859 30.6811 49.308 30.5031C49.0301 30.3229 48.7099 30.2328 48.3474 30.2328C47.9848 30.2328 47.6646 30.3229 47.3867 30.5031C47.1089 30.6811 46.8907 30.9449 46.7322 31.2944C46.5759 31.6417 46.4978 32.0683 46.4978 32.5741C46.4978 33.0799 46.5759 33.5076 46.7322 33.8571C46.8907 34.2044 47.1089 34.4682 47.3867 34.6484C47.6646 34.8264 47.9848 34.9154 48.3474 34.9154C48.7099 34.9154 49.0301 34.8264 49.308 34.6484C49.5859 34.4682 49.8029 34.2044 49.9592 33.8571C50.1177 33.5076 50.197 33.0799 50.197 32.5741Z" fill="#FFE395"/>
<path d="M37.1429 29.2393H38.6213L40.6011 34.0717H40.6793L42.6591 29.2393H44.1375V35.9082H42.9782V31.3266H42.9164L41.0733 35.8887H40.2071L38.364 31.3168H38.3021V35.9082H37.1429V29.2393Z" fill="#FFE395"/>
<path d="M64.9401 27.5293V20.8604H69.2776V21.8731H66.1482V23.6836H69.0529V24.6963H66.1482V26.5166H69.3036V27.5293H64.9401Z" fill="#FFE395"/>
<path d="M58.115 27.5293V20.8604H59.3231V23.6836H62.4134V20.8604H63.6247V27.5293H62.4134V24.6963H59.3231V27.5293H58.115Z" fill="#FFE395"/>
<path d="M51.7691 21.8731V20.8604H57.09V21.8731H55.0287V27.5293H53.8304V21.8731H51.7691Z" fill="#FFE395"/>
<path d="M44.4144 27.5293V20.8604H48.6867V21.8731H45.6225V23.6836H48.3937V24.6963H45.6225V27.5293H44.4144Z" fill="#FFE395"/>
<path d="M43.2713 24.1947C43.2713 24.9133 43.1367 25.5287 42.8675 26.0411C42.6005 26.5512 42.2358 26.942 41.7734 27.2133C41.3132 27.4847 40.7911 27.6204 40.2071 27.6204C39.6231 27.6204 39.0999 27.4847 38.6375 27.2133C38.1773 26.9398 37.8126 26.548 37.5434 26.0378C37.2764 25.5255 37.1429 24.9111 37.1429 24.1947C37.1429 23.4761 37.2764 22.8618 37.5434 22.3516C37.8126 21.8393 38.1773 21.4474 38.6375 21.1761C39.0999 20.9047 39.6231 20.769 40.2071 20.769C40.7911 20.769 41.3132 20.9047 41.7734 21.1761C42.2358 21.4474 42.6005 21.8393 42.8675 22.3516C43.1367 22.8618 43.2713 23.4761 43.2713 24.1947ZM42.0567 24.1947C42.0567 23.6889 41.9775 23.2623 41.819 22.915C41.6627 22.5655 41.4456 22.3017 41.1677 22.1237C40.8898 21.9435 40.5696 21.8534 40.2071 21.8534C39.8446 21.8534 39.5244 21.9435 39.2465 22.1237C38.9686 22.3017 38.7504 22.5655 38.592 22.915C38.4356 23.2623 38.3575 23.6889 38.3575 24.1947C38.3575 24.7005 38.4356 25.1282 38.592 25.4777C38.7504 25.8251 38.9686 26.0888 39.2465 26.269C39.5244 26.447 39.8446 26.536 40.2071 26.536C40.5696 26.536 40.8898 26.447 41.1677 26.269C41.4456 26.0888 41.6627 25.8251 41.819 25.4777C41.9775 25.1282 42.0567 24.7005 42.0567 24.1947Z" fill="#FFE395"/>
<path d="M88.4987 19.1392V12.4702H90.9995C91.5119 12.4702 91.9417 12.5592 92.289 12.7372C92.6386 12.9152 92.9023 13.1649 93.0803 13.4862C93.2605 13.8053 93.3506 14.1776 93.3506 14.6031C93.3506 15.0308 93.2594 15.402 93.0771 15.7168C92.8969 16.0294 92.6309 16.2714 92.2793 16.4429C91.9276 16.6123 91.4956 16.6969 90.9832 16.6969H89.202V15.694H90.8204C91.12 15.694 91.3653 15.6527 91.5564 15.5702C91.7474 15.4856 91.8885 15.3629 91.9797 15.2023C92.073 15.0395 92.1197 14.8397 92.1197 14.6031C92.1197 14.3665 92.073 14.1646 91.9797 13.9974C91.8863 13.8281 91.7441 13.7 91.5531 13.6132C91.3621 13.5242 91.1157 13.4797 90.8139 13.4797H89.7068V19.1392H88.4987ZM91.9439 16.1173L93.5948 19.1392H92.2467L90.625 16.1173H91.9439Z" fill="#FFE395"/>
<path d="M82.9296 19.1392V12.4702H87.2671V13.4829H84.1377V15.2935H87.0424V16.3062H84.1377V18.1265H87.2931V19.1392H82.9296Z" fill="#FFE395"/>
<path d="M81.8225 14.7207H80.6046C80.5698 14.521 80.5058 14.3441 80.4125 14.1899C80.3191 14.0336 80.203 13.9012 80.064 13.7926C79.9251 13.6841 79.7666 13.6027 79.5886 13.5484C79.4128 13.492 79.2228 13.4638 79.0187 13.4638C78.6562 13.4638 78.3349 13.5549 78.0549 13.7373C77.7748 13.9175 77.5556 14.1823 77.3971 14.5318C77.2386 14.8792 77.1594 15.3036 77.1594 15.8051C77.1594 16.3152 77.2386 16.7451 77.3971 17.0946C77.5577 17.4419 77.777 17.7046 78.0549 17.8826C78.3349 18.0584 78.6551 18.1464 79.0155 18.1464C79.2152 18.1464 79.4019 18.1203 79.5756 18.0682C79.7514 18.0139 79.9088 17.9347 80.0477 17.8305C80.1889 17.7263 80.3072 17.5982 80.4027 17.4463C80.5004 17.2943 80.5677 17.1206 80.6046 16.9252L81.8225 16.9318C81.7769 17.2487 81.6781 17.5461 81.5261 17.824C81.3763 18.1019 81.1799 18.3472 80.9367 18.5599C80.6936 18.7705 80.4092 18.9355 80.0836 19.0549C79.7579 19.1721 79.3965 19.2307 78.9992 19.2307C78.4131 19.2307 77.8899 19.0951 77.4297 18.8237C76.9694 18.5523 76.6069 18.1605 76.342 17.6482C76.0772 17.1358 75.9448 16.5215 75.9448 15.8051C75.9448 15.0865 76.0783 14.4721 76.3453 13.962C76.6123 13.4496 76.9759 13.0578 77.4362 12.7864C77.8964 12.5151 78.4174 12.3794 78.9992 12.3794C79.3704 12.3794 79.7156 12.4315 80.0347 12.5357C80.3538 12.6399 80.6382 12.7929 80.8879 12.9948C81.1375 13.1946 81.3427 13.4399 81.5033 13.7308C81.6662 14.0195 81.7725 14.3495 81.8225 14.7207Z" fill="#FFE395"/>
<path d="M74.7992 12.4702V19.1392H73.7246L70.5822 14.5966H70.5269V19.1392H69.3188V12.4702H70.3999L73.539 17.0161H73.5976V12.4702H74.7992Z" fill="#FFE395"/>
<path d="M63.7475 19.1392V12.4702H68.0849V13.4829H64.9556V15.2935H67.8603V16.3062H64.9556V18.1265H68.111V19.1392H63.7475Z" fill="#FFE395"/>
<path d="M61.227 12.4702H62.4351V16.8272C62.4351 17.3048 62.3222 17.7249 62.0964 18.0874C61.8728 18.4499 61.5581 18.7332 61.1521 18.9373C60.7462 19.1392 60.2718 19.2401 59.7291 19.2401C59.1842 19.2401 58.7088 19.1392 58.3028 18.9373C57.8969 18.7332 57.5821 18.4499 57.3585 18.0874C57.1349 17.7249 57.0231 17.3048 57.0231 16.8272V12.4702H58.2312V16.7263C58.2312 17.0041 58.292 17.2516 58.4135 17.4687C58.5373 17.6858 58.7109 17.8562 58.9345 17.9799C59.1581 18.1015 59.423 18.1623 59.7291 18.1623C60.0352 18.1623 60.3 18.1015 60.5236 17.9799C60.7494 17.8562 60.9231 17.6858 61.0447 17.4687C61.1662 17.2516 61.227 17.0041 61.227 16.7263V12.4702Z" fill="#FFE395"/>
<path d="M51.8282 19.1392V12.4702H53.0363V18.1265H55.9735V19.1392H51.8282Z" fill="#FFE395"/>
<path d="M46.4561 19.1392V12.4702H50.7284V13.4829H47.6642V15.2935H50.4353V16.3062H47.6642V19.1392H46.4561Z" fill="#FFE395"/>
<path d="M45.1398 12.4702V19.1392H44.0652L40.9228 14.5966H40.8675V19.1392H39.6594V12.4702H40.7405L43.8796 17.0161H43.9382V12.4702H45.1398Z" fill="#FFE395"/>
<path d="M38.351 12.4702V19.1392H37.1429V12.4702H38.351Z" fill="#FFE395"/>
<path d="M50.2964 10.7603V4.09131H52.7973C53.3096 4.09131 53.7394 4.18683 54.0868 4.37787C54.4363 4.5689 54.7 4.83158 54.8781 5.1659C55.0582 5.49805 55.1483 5.87578 55.1483 6.29911C55.1483 6.72677 55.0582 7.10668 54.8781 7.43883C54.6979 7.77097 54.4319 8.03256 54.0803 8.2236C53.7286 8.41247 53.2955 8.5069 52.781 8.5069H51.1235V7.51372H52.6182C52.9177 7.51372 53.163 7.46162 53.3541 7.35742C53.5451 7.25321 53.6862 7.10993 53.7774 6.92758C53.8708 6.74522 53.9174 6.53573 53.9174 6.29911C53.9174 6.06248 53.8708 5.85407 53.7774 5.67389C53.6862 5.49371 53.544 5.35368 53.3508 5.25382C53.1598 5.15179 52.9134 5.10077 52.6116 5.10077H51.5045V10.7603H50.2964Z" fill="#FFE395"/>
<path d="M49.1533 7.42567C49.1533 8.14423 49.0187 8.75968 48.7495 9.27201C48.4825 9.78217 48.1178 10.1729 47.6554 10.4443C47.1952 10.7157 46.6731 10.8513 46.0891 10.8513C45.5051 10.8513 44.982 10.7157 44.5196 10.4443C44.0593 10.1708 43.6946 9.77892 43.4254 9.26876C43.1584 8.75643 43.0249 8.14206 43.0249 7.42567C43.0249 6.7071 43.1584 6.09274 43.4254 5.58258C43.6946 5.07025 44.0593 4.6784 44.5196 4.40704C44.982 4.13568 45.5051 4 46.0891 4C46.6731 4 47.1952 4.13568 47.6554 4.40704C48.1178 4.6784 48.4825 5.07025 48.7495 5.58258C49.0187 6.09274 49.1533 6.7071 49.1533 7.42567ZM47.9387 7.42567C47.9387 6.91985 47.8595 6.49327 47.701 6.14593C47.5447 5.79641 47.3276 5.53265 47.0497 5.35464C46.7719 5.17445 46.4517 5.08436 46.0891 5.08436C45.7266 5.08436 45.4064 5.17445 45.1285 5.35464C44.8506 5.53265 44.6324 5.79641 44.474 6.14593C44.3177 6.49327 44.2395 6.91985 44.2395 7.42567C44.2395 7.93149 44.3177 8.35915 44.474 8.70867C44.6324 9.05601 44.8506 9.31977 45.1285 9.49996C45.4064 9.67797 45.7266 9.76698 46.0891 9.76698C46.4517 9.76698 46.7719 9.67797 47.0497 9.49996C47.3276 9.31977 47.5447 9.05601 47.701 8.70867C47.8595 8.35915 47.9387 7.93149 47.9387 7.42567Z" fill="#FFE395"/>
<path d="M37.1429 5.10403V4.09131H42.4637V5.10403H40.4025V10.7603H39.2041V5.10403H37.1429Z" fill="#FFE395"/>
<defs>
<linearGradient id="paint0_linear_2133_10564" x1="31.619" y1="37.7144" x2="17.1427" y2="28.7617" gradientUnits="userSpaceOnUse">
<stop stop-color="#B48B34"/>
<stop offset="0.5" stop-color="#E8C776"/>
<stop offset="0.856331" stop-color="#A67921"/>
</linearGradient>
<linearGradient id="paint1_linear_2133_10564" x1="1.52384" y1="37.7144" x2="16.0002" y2="28.7617" gradientUnits="userSpaceOnUse">
<stop stop-color="#B48B34"/>
<stop offset="0.5" stop-color="#E8C776"/>
<stop offset="0.856331" stop-color="#A67921"/>
</linearGradient>
<linearGradient id="paint2_linear_2133_10564" x1="1.5235" y1="15.2381" x2="32.0004" y2="15.2381" gradientUnits="userSpaceOnUse">
<stop stop-color="#B48B34"/>
<stop offset="0.5" stop-color="#E8C776"/>
<stop offset="1" stop-color="#A67921"/>
</linearGradient>
<linearGradient id="paint3_linear_2133_10564" x1="-1.35168" y1="48.1633" x2="39.2502" y2="43.7237" gradientUnits="userSpaceOnUse">
<stop stop-color="#7A5018"/>
<stop offset="1" stop-color="#FEEA9A"/>
</linearGradient>
<linearGradient id="paint4_linear_2133_10564" x1="20.7501" y1="3" x2="7.25006" y2="28.875" gradientUnits="userSpaceOnUse">
<stop stop-color="#8C5E1C"/>
<stop offset="1" stop-color="#261A08"/>
</linearGradient>
</defs>
</svg>
